<?xml version="1.0" encoding="utf-8"?>
<!-- Uploaded to: SVG Repo, www.svgrepo.com, Generator: SVG Repo Mixer Tools -->
<svg fill="#000000" version="1.1" id="Layer_1" xmlns="http://www.w3.org/2000/svg" xmlns:xlink="http://www.w3.org/1999/xlink" 
	 width="800px" height="800px" viewBox="0 0 256 190" enable-background="new 0 0 256 190" xml:space="preserve">
<path d="M48.12,27.903C48.12,13.564,59.592,2,74.023,2c14.339,0,25.903,11.564,25.903,25.903
	C99.834,42.335,88.27,53.806,74.023,53.806C59.684,53.806,48.12,42.242,48.12,27.903z M191,139h-47V97c0-20.461-17.881-37-38-37H43
	C20.912,60,1.99,79.14,2,98v77c-0.026,8.533,6.001,12.989,12,13c6.014,0.011,12-4.445,12-13v-75h8v88h78v-88h8l0.081,50.37
	c-0.053,8.729,5.342,12.446,10.919,12.63h60C207.363,163,207.363,139,191,139z M254,79.761c0,26.94-21.918,48.858-48.858,48.858
	s-48.858-21.918-48.858-48.858c0-25.024,18.912-45.711,43.193-48.528v-6.184h-6.755V13.34h25.667v11.708h-7.205v6.228
	c5.431,0.673,10.588,2.24,15.319,4.55l4.113-6.524l9.904,6.243l-4.186,6.639C247.121,51.154,254,64.669,254,79.761z M242.301,79.761
	c0-20.489-16.669-37.159-37.159-37.159s-37.159,16.669-37.159,37.159s16.669,37.159,37.159,37.159S242.301,100.25,242.301,79.761z
	 M205.331,49.365v30.17h30.17C235.322,62.93,221.959,49.444,205.331,49.365z"/>
</svg>