<svg xmlns="http://www.w3.org/2000/svg" xmlns:xlink="http://www.w3.org/1999/xlink" width="2600" zoomAndPan="magnify" viewBox="0 0 1950 1074.749946" height="1433" preserveAspectRatio="xMidYMid meet" version="1.0"><defs><clipPath id="550025cd9b"><path d="M 0.226562 0 L 1949.773438 0 L 1949.773438 1074.5 L 0.226562 1074.5 Z M 0.226562 0 " clip-rule="nonzero"/></clipPath><clipPath id="81559bd393"><path d="M 207.179688 0 L 1742.820312 0 L 1742.820312 1074.5 L 207.179688 1074.5 Z M 207.179688 0 " clip-rule="nonzero"/></clipPath><clipPath id="8b0d1b335d"><path d="M 706.261719 422 L 1243.734375 422 L 1243.734375 806.210938 L 706.261719 806.210938 Z M 706.261719 422 " clip-rule="nonzero"/></clipPath><clipPath id="870edf961f"><path d="M 706.261719 537.398438 C 706.261719 533 706.371094 528.605469 706.585938 524.210938 C 706.804688 519.816406 707.125 515.429688 707.558594 511.050781 C 707.988281 506.671875 708.527344 502.308594 709.171875 497.957031 C 709.816406 493.605469 710.570312 489.273438 711.425781 484.957031 C 712.285156 480.640625 713.25 476.351562 714.316406 472.082031 C 715.386719 467.816406 716.558594 463.578125 717.835938 459.367188 C 719.113281 455.15625 720.492188 450.980469 721.972656 446.839844 C 723.453125 442.699219 725.035156 438.59375 726.71875 434.53125 C 728.402344 430.464844 730.183594 426.445312 732.066406 422.46875 C 733.945312 418.492188 735.921875 414.5625 737.996094 410.683594 C 740.070312 406.800781 742.234375 402.976562 744.496094 399.203125 C 746.757812 395.429688 749.109375 391.714844 751.554688 388.054688 C 753.996094 384.398438 756.527344 380.800781 759.148438 377.269531 C 761.769531 373.734375 764.472656 370.269531 767.265625 366.867188 C 770.054688 363.464844 772.925781 360.136719 775.878906 356.875 C 778.832031 353.617188 781.863281 350.429688 784.976562 347.320312 C 788.085938 344.210938 791.269531 341.175781 794.527344 338.222656 C 797.785156 335.269531 801.117188 332.394531 804.515625 329.605469 C 807.914062 326.8125 811.382812 324.109375 814.914062 321.488281 C 818.445312 318.867188 822.042969 316.335938 825.699219 313.890625 C 829.355469 311.445312 833.070312 309.09375 836.839844 306.832031 C 840.613281 304.570312 844.441406 302.402344 848.320312 300.328125 C 852.195312 298.253906 856.125 296.277344 860.101562 294.394531 C 864.074219 292.515625 868.09375 290.734375 872.160156 289.050781 C 876.222656 287.367188 880.324219 285.785156 884.464844 284.300781 C 888.605469 282.820312 892.78125 281.441406 896.988281 280.164062 C 901.199219 278.886719 905.4375 277.710938 909.703125 276.644531 C 913.96875 275.574219 918.257812 274.609375 922.570312 273.753906 C 926.886719 272.894531 931.21875 272.140625 935.566406 271.496094 C 939.917969 270.851562 944.28125 270.3125 948.660156 269.882812 C 953.035156 269.449219 957.421875 269.128906 961.8125 268.910156 C 966.207031 268.695312 970.601562 268.585938 975 268.585938 C 979.398438 268.585938 983.792969 268.695312 988.1875 268.910156 C 992.578125 269.128906 996.964844 269.449219 1001.339844 269.882812 C 1005.71875 270.3125 1010.082031 270.851562 1014.429688 271.496094 C 1018.78125 272.140625 1023.113281 272.894531 1027.425781 273.753906 C 1031.742188 274.609375 1036.03125 275.574219 1040.296875 276.644531 C 1044.5625 277.710938 1048.800781 278.886719 1053.011719 280.164062 C 1057.21875 281.441406 1061.394531 282.820312 1065.535156 284.300781 C 1069.675781 285.785156 1073.777344 287.367188 1077.839844 289.050781 C 1081.902344 290.734375 1085.921875 292.515625 1089.898438 294.394531 C 1093.875 296.277344 1097.800781 298.253906 1101.679688 300.328125 C 1105.558594 302.402344 1109.386719 304.570312 1113.15625 306.832031 C 1116.929688 309.09375 1120.644531 311.445312 1124.300781 313.890625 C 1127.957031 316.335938 1131.554688 318.867188 1135.085938 321.488281 C 1138.617188 324.109375 1142.085938 326.8125 1145.484375 329.605469 C 1148.882812 332.394531 1152.214844 335.269531 1155.472656 338.222656 C 1158.730469 341.175781 1161.914062 344.210938 1165.023438 347.320312 C 1168.136719 350.429688 1171.167969 353.617188 1174.121094 356.875 C 1177.074219 360.136719 1179.945312 363.464844 1182.734375 366.867188 C 1185.527344 370.269531 1188.230469 373.734375 1190.851562 377.269531 C 1193.46875 380.800781 1196.003906 384.398438 1198.445312 388.054688 C 1200.890625 391.714844 1203.242188 395.429688 1205.503906 399.203125 C 1207.765625 402.976562 1209.929688 406.804688 1212.003906 410.683594 C 1214.078125 414.5625 1216.054688 418.492188 1217.933594 422.46875 C 1219.816406 426.445312 1221.597656 430.464844 1223.28125 434.53125 C 1224.960938 438.59375 1226.546875 442.699219 1228.027344 446.839844 C 1229.507812 450.980469 1230.886719 455.15625 1232.164062 459.367188 C 1233.441406 463.578125 1234.613281 467.816406 1235.683594 472.082031 C 1236.75 476.351562 1237.714844 480.640625 1238.574219 484.957031 C 1239.429688 489.273438 1240.183594 493.605469 1240.828125 497.957031 C 1241.472656 502.308594 1242.011719 506.671875 1242.441406 511.050781 C 1242.875 515.429688 1243.195312 519.816406 1243.414062 524.210938 C 1243.628906 528.605469 1243.734375 533 1243.734375 537.398438 C 1243.734375 541.800781 1243.628906 546.195312 1243.414062 550.589844 C 1243.195312 554.984375 1242.875 559.371094 1242.441406 563.75 C 1242.011719 568.125 1241.472656 572.492188 1240.828125 576.84375 C 1240.183594 581.195312 1239.429688 585.527344 1238.574219 589.84375 C 1237.714844 594.15625 1236.75 598.449219 1235.683594 602.714844 C 1234.613281 606.984375 1233.441406 611.222656 1232.164062 615.433594 C 1230.886719 619.640625 1229.507812 623.816406 1228.027344 627.960938 C 1226.546875 632.101562 1224.960938 636.207031 1223.28125 640.269531 C 1221.597656 644.335938 1219.816406 648.355469 1217.933594 652.332031 C 1216.054688 656.308594 1214.078125 660.238281 1212.003906 664.117188 C 1209.929688 667.996094 1207.765625 671.824219 1205.503906 675.597656 C 1203.242188 679.371094 1200.890625 683.085938 1198.445312 686.742188 C 1196.003906 690.402344 1193.46875 693.996094 1190.851562 697.53125 C 1188.230469 701.066406 1185.527344 704.53125 1182.734375 707.933594 C 1179.945312 711.332031 1177.074219 714.664062 1174.121094 717.921875 C 1171.167969 721.183594 1168.136719 724.367188 1165.023438 727.480469 C 1161.914062 730.589844 1158.730469 733.621094 1155.472656 736.578125 C 1152.214844 739.53125 1148.882812 742.402344 1145.484375 745.195312 C 1142.085938 747.984375 1138.617188 750.691406 1135.085938 753.3125 C 1131.554688 755.933594 1127.957031 758.464844 1124.300781 760.910156 C 1120.644531 763.351562 1116.929688 765.707031 1113.15625 767.96875 C 1109.386719 770.230469 1105.558594 772.398438 1101.679688 774.472656 C 1097.800781 776.546875 1093.875 778.523438 1089.898438 780.402344 C 1085.921875 782.285156 1081.902344 784.066406 1077.839844 785.75 C 1073.777344 787.433594 1069.675781 789.015625 1065.535156 790.5 C 1061.394531 791.980469 1057.21875 793.359375 1053.011719 794.636719 C 1048.800781 795.914062 1044.5625 797.085938 1040.296875 798.15625 C 1036.03125 799.226562 1031.742188 800.1875 1027.425781 801.046875 C 1023.113281 801.90625 1018.78125 802.65625 1014.429688 803.304688 C 1010.082031 803.949219 1005.71875 804.488281 1001.339844 804.917969 C 996.964844 805.347656 992.578125 805.671875 988.1875 805.886719 C 983.792969 806.105469 979.398438 806.210938 975 806.210938 C 970.601562 806.210938 966.207031 806.105469 961.8125 805.886719 C 957.421875 805.671875 953.035156 805.347656 948.660156 804.917969 C 944.28125 804.488281 939.917969 803.949219 935.566406 803.304688 C 931.21875 802.65625 926.886719 801.90625 922.570312 801.046875 C 918.257812 800.1875 913.96875 799.226562 909.703125 798.15625 C 905.4375 797.085938 901.199219 795.914062 896.988281 794.636719 C 892.78125 793.359375 888.605469 791.980469 884.464844 790.5 C 880.324219 789.015625 876.222656 787.433594 872.160156 785.75 C 868.09375 784.066406 864.074219 782.285156 860.101562 780.402344 C 856.125 778.523438 852.195312 776.546875 848.320312 774.472656 C 844.441406 772.398438 840.613281 770.230469 836.839844 767.96875 C 833.070312 765.707031 829.355469 763.351562 825.699219 760.910156 C 822.042969 758.464844 818.445312 755.933594 814.914062 753.3125 C 811.382812 750.691406 807.914062 747.984375 804.515625 745.195312 C 801.117188 742.402344 797.785156 739.53125 794.527344 736.578125 C 791.269531 733.621094 788.085938 730.589844 784.976562 727.480469 C 781.863281 724.367188 778.832031 721.183594 775.878906 717.921875 C 772.925781 714.664062 770.054688 711.332031 767.265625 707.933594 C 764.472656 704.53125 761.769531 701.066406 759.148438 697.53125 C 756.527344 693.996094 753.996094 690.402344 751.554688 686.742188 C 749.109375 683.085938 746.757812 679.371094 744.496094 675.597656 C 742.234375 671.824219 740.070312 667.996094 737.996094 664.117188 C 735.921875 660.238281 733.945312 656.308594 732.066406 652.332031 C 730.183594 648.355469 728.402344 644.335938 726.71875 640.269531 C 725.035156 636.207031 723.453125 632.101562 721.972656 627.960938 C 720.492188 623.816406 719.113281 619.640625 717.835938 615.433594 C 716.558594 611.222656 715.386719 606.984375 714.316406 602.714844 C 713.25 598.449219 712.285156 594.15625 711.425781 589.84375 C 710.570312 585.527344 709.816406 581.195312 709.171875 576.84375 C 708.527344 572.492188 707.988281 568.125 707.558594 563.75 C 707.125 559.371094 706.804688 554.984375 706.585938 550.589844 C 706.371094 546.195312 706.261719 541.800781 706.261719 537.398438 Z M 706.261719 537.398438 " clip-rule="nonzero"/></clipPath><clipPath id="71a9cfb8ab"><path d="M 1062 481 L 1086 481 L 1086 507 L 1062 507 Z M 1062 481 " clip-rule="nonzero"/></clipPath><clipPath id="3cb8c8b5ab"><path d="M 1068.398438 477.542969 L 1089.855469 486.875 L 1079.652344 510.355469 L 1058.191406 501.019531 Z M 1068.398438 477.542969 " clip-rule="nonzero"/></clipPath><clipPath id="4933cba48e"><path d="M 1058.359375 501.09375 L 1068.566406 477.617188 L 1089.6875 486.804688 L 1079.484375 510.28125 Z M 1075.773438 489.925781 L 1074.023438 493.949219 L 1084.585938 498.542969 L 1086.335938 494.519531 Z M 1075.773438 489.925781 " clip-rule="nonzero"/></clipPath></defs><g clip-path="url(#550025cd9b)"><path fill="#ffffff" d="M 0.226562 0 L 1949.773438 0 L 1949.773438 1081.25 L 0.226562 1081.25 Z M 0.226562 0 " fill-opacity="1" fill-rule="nonzero"/><path fill="#ffffff" d="M 0.226562 0 L 1949.773438 0 L 1949.773438 1074.5 L 0.226562 1074.5 Z M 0.226562 0 " fill-opacity="1" fill-rule="nonzero"/><path fill="#009b3a" d="M 0.226562 0 L 1949.773438 0 L 1949.773438 1074.5 L 0.226562 1074.5 Z M 0.226562 0 " fill-opacity="1" fill-rule="nonzero"/></g><g clip-path="url(#81559bd393)"><path fill="#009b3a" d="M 207.183594 -0.226562 L 1742.816406 -0.226562 L 1742.816406 1075.023438 L 207.183594 1075.023438 Z M 207.183594 -0.226562 " fill-opacity="1" fill-rule="nonzero"/></g><path fill="#fedf00" d="M 337.710938 537.398438 L 975 944.457031 L 1612.289062 537.398438 L 975 130.339844 Z M 337.710938 537.398438 " fill-opacity="1" fill-rule="nonzero"/><path fill="#002776" d="M 1243.734375 537.398438 C 1243.734375 541.800781 1243.628906 546.195312 1243.414062 550.589844 C 1243.195312 554.984375 1242.875 559.371094 1242.441406 563.75 C 1242.011719 568.125 1241.472656 572.492188 1240.828125 576.84375 C 1240.183594 581.195312 1239.429688 585.527344 1238.574219 589.84375 C 1237.714844 594.15625 1236.75 598.449219 1235.683594 602.714844 C 1234.613281 606.984375 1233.441406 611.222656 1232.164062 615.433594 C 1230.886719 619.640625 1229.507812 623.816406 1228.027344 627.960938 C 1226.546875 632.101562 1224.964844 636.207031 1223.28125 640.269531 C 1221.597656 644.335938 1219.816406 648.355469 1217.933594 652.332031 C 1216.054688 656.308594 1214.078125 660.238281 1212.003906 664.117188 C 1209.929688 667.996094 1207.765625 671.824219 1205.503906 675.597656 C 1203.242188 679.371094 1200.890625 683.085938 1198.445312 686.742188 C 1196.003906 690.402344 1193.472656 693.996094 1190.851562 697.53125 C 1188.230469 701.066406 1185.527344 704.53125 1182.734375 707.933594 C 1179.945312 711.332031 1177.074219 714.664062 1174.121094 717.921875 C 1171.167969 721.183594 1168.136719 724.367188 1165.023438 727.480469 C 1161.914062 730.589844 1158.730469 733.621094 1155.472656 736.578125 C 1152.214844 739.53125 1148.882812 742.402344 1145.484375 745.195312 C 1142.085938 747.984375 1138.617188 750.691406 1135.085938 753.3125 C 1131.554688 755.933594 1127.957031 758.464844 1124.300781 760.910156 C 1120.644531 763.351562 1116.929688 765.707031 1113.15625 767.96875 C 1109.386719 770.230469 1105.558594 772.398438 1101.679688 774.472656 C 1097.800781 776.546875 1093.875 778.523438 1089.898438 780.402344 C 1085.921875 782.285156 1081.902344 784.066406 1077.839844 785.75 C 1073.777344 787.433594 1069.675781 789.015625 1065.535156 790.5 C 1061.394531 791.980469 1057.21875 793.359375 1053.011719 794.636719 C 1048.800781 795.914062 1044.5625 797.085938 1040.296875 798.15625 C 1036.03125 799.226562 1031.742188 800.1875 1027.429688 801.046875 C 1023.113281 801.90625 1018.78125 802.65625 1014.433594 803.304688 C 1010.082031 803.949219 1005.71875 804.488281 1001.339844 804.917969 C 996.964844 805.347656 992.578125 805.671875 988.1875 805.886719 C 983.792969 806.105469 979.398438 806.210938 975 806.210938 C 970.601562 806.210938 966.207031 806.105469 961.8125 805.886719 C 957.421875 805.671875 953.035156 805.347656 948.660156 804.917969 C 944.28125 804.488281 939.917969 803.949219 935.566406 803.304688 C 931.21875 802.65625 926.886719 801.90625 922.570312 801.046875 C 918.257812 800.1875 913.96875 799.226562 909.703125 798.15625 C 905.4375 797.085938 901.199219 795.914062 896.988281 794.636719 C 892.78125 793.359375 888.605469 791.980469 884.464844 790.5 C 880.324219 789.015625 876.222656 787.433594 872.160156 785.75 C 868.097656 784.066406 864.078125 782.285156 860.101562 780.402344 C 856.125 778.523438 852.199219 776.546875 848.320312 774.472656 C 844.441406 772.398438 840.613281 770.230469 836.84375 767.96875 C 833.070312 765.707031 829.355469 763.351562 825.699219 760.910156 C 822.042969 758.464844 818.445312 755.933594 814.914062 753.3125 C 811.382812 750.691406 807.914062 747.984375 804.515625 745.195312 C 801.117188 742.402344 797.785156 739.53125 794.527344 736.578125 C 791.269531 733.621094 788.085938 730.589844 784.976562 727.480469 C 781.863281 724.367188 778.832031 721.183594 775.878906 717.921875 C 772.925781 714.664062 770.054688 711.332031 767.265625 707.933594 C 764.472656 704.53125 761.769531 701.066406 759.148438 697.53125 C 756.527344 693.996094 753.996094 690.402344 751.554688 686.742188 C 749.109375 683.085938 746.757812 679.371094 744.496094 675.597656 C 742.234375 671.824219 740.070312 667.996094 737.996094 664.117188 C 735.921875 660.238281 733.945312 656.308594 732.066406 652.332031 C 730.183594 648.355469 728.402344 644.335938 726.71875 640.269531 C 725.035156 636.207031 723.453125 632.101562 721.972656 627.960938 C 720.492188 623.816406 719.113281 619.640625 717.835938 615.433594 C 716.558594 611.222656 715.386719 606.984375 714.316406 602.714844 C 713.25 598.449219 712.285156 594.15625 711.425781 589.84375 C 710.570312 585.527344 709.816406 581.195312 709.171875 576.84375 C 708.527344 572.492188 707.988281 568.125 707.558594 563.75 C 707.125 559.371094 706.804688 554.984375 706.585938 550.589844 C 706.371094 546.195312 706.261719 541.800781 706.261719 537.398438 C 706.261719 533 706.371094 528.605469 706.585938 524.210938 C 706.804688 519.816406 707.125 515.429688 707.558594 511.050781 C 707.988281 506.671875 708.527344 502.308594 709.171875 497.957031 C 709.816406 493.605469 710.570312 489.273438 711.425781 484.957031 C 712.285156 480.640625 713.25 476.351562 714.316406 472.082031 C 715.386719 467.816406 716.558594 463.578125 717.835938 459.367188 C 719.113281 455.15625 720.492188 450.980469 721.972656 446.839844 C 723.453125 442.699219 725.035156 438.59375 726.71875 434.53125 C 728.402344 430.464844 730.183594 426.445312 732.066406 422.46875 C 733.945312 418.492188 735.921875 414.5625 737.996094 410.683594 C 740.070312 406.804688 742.234375 402.976562 744.496094 399.203125 C 746.757812 395.429688 749.109375 391.714844 751.554688 388.054688 C 753.996094 384.398438 756.527344 380.800781 759.148438 377.269531 C 761.769531 373.734375 764.472656 370.269531 767.265625 366.867188 C 770.054688 363.464844 772.925781 360.136719 775.878906 356.875 C 778.832031 353.617188 781.863281 350.429688 784.976562 347.320312 C 788.085938 344.210938 791.269531 341.175781 794.527344 338.222656 C 797.785156 335.269531 801.117188 332.394531 804.515625 329.605469 C 807.914062 326.8125 811.382812 324.109375 814.914062 321.488281 C 818.445312 318.867188 822.042969 316.335938 825.699219 313.890625 C 829.355469 311.445312 833.070312 309.09375 836.84375 306.832031 C 840.613281 304.570312 844.441406 302.402344 848.320312 300.328125 C 852.199219 298.253906 856.125 296.277344 860.101562 294.394531 C 864.078125 292.515625 868.097656 290.734375 872.160156 289.050781 C 876.222656 287.367188 880.324219 285.785156 884.464844 284.300781 C 888.605469 282.820312 892.78125 281.441406 896.988281 280.164062 C 901.199219 278.886719 905.4375 277.710938 909.703125 276.644531 C 913.96875 275.574219 918.257812 274.609375 922.570312 273.753906 C 926.886719 272.894531 931.21875 272.140625 935.566406 271.496094 C 939.917969 270.851562 944.28125 270.3125 948.660156 269.882812 C 953.035156 269.449219 957.421875 269.128906 961.8125 268.910156 C 966.207031 268.695312 970.601562 268.585938 975 268.585938 C 979.398438 268.585938 983.792969 268.695312 988.1875 268.910156 C 992.578125 269.128906 996.964844 269.449219 1001.339844 269.882812 C 1005.71875 270.3125 1010.082031 270.851562 1014.433594 271.496094 C 1018.78125 272.140625 1023.113281 272.894531 1027.429688 273.753906 C 1031.742188 274.609375 1036.03125 275.574219 1040.296875 276.644531 C 1044.5625 277.710938 1048.800781 278.886719 1053.011719 280.164062 C 1057.21875 281.441406 1061.394531 282.820312 1065.535156 284.300781 C 1069.675781 285.785156 1073.777344 287.367188 1077.839844 289.050781 C 1081.902344 290.734375 1085.921875 292.515625 1089.898438 294.394531 C 1093.875 296.277344 1097.800781 298.253906 1101.679688 300.328125 C 1105.558594 302.402344 1109.386719 304.570312 1113.15625 306.832031 C 1116.929688 309.09375 1120.644531 311.445312 1124.300781 313.890625 C 1127.957031 316.335938 1131.554688 318.867188 1135.085938 321.488281 C 1138.617188 324.109375 1142.085938 326.8125 1145.484375 329.605469 C 1148.882812 332.394531 1152.214844 335.269531 1155.472656 338.222656 C 1158.730469 341.175781 1161.914062 344.210938 1165.023438 347.320312 C 1168.136719 350.429688 1171.167969 353.617188 1174.121094 356.875 C 1177.074219 360.136719 1179.945312 363.464844 1182.734375 366.867188 C 1185.527344 370.269531 1188.230469 373.734375 1190.851562 377.269531 C 1193.472656 380.800781 1196.003906 384.398438 1198.445312 388.054688 C 1200.890625 391.714844 1203.242188 395.429688 1205.503906 399.203125 C 1207.765625 402.976562 1209.929688 406.804688 1212.003906 410.683594 C 1214.078125 414.5625 1216.054688 418.492188 1217.933594 422.46875 C 1219.816406 426.445312 1221.597656 430.464844 1223.28125 434.53125 C 1224.964844 438.59375 1226.546875 442.699219 1228.027344 446.839844 C 1229.507812 450.980469 1230.886719 455.15625 1232.164062 459.367188 C 1233.441406 463.578125 1234.613281 467.816406 1235.683594 472.082031 C 1236.75 476.351562 1237.714844 480.640625 1238.574219 484.957031 C 1239.429688 489.273438 1240.183594 493.605469 1240.828125 497.957031 C 1241.472656 502.308594 1242.011719 506.671875 1242.441406 511.050781 C 1242.875 515.429688 1243.195312 519.816406 1243.414062 524.210938 C 1243.628906 528.605469 1243.734375 533 1243.734375 537.398438 Z M 1243.734375 537.398438 " fill-opacity="1" fill-rule="nonzero"/><g clip-path="url(#8b0d1b335d)"><g clip-path="url(#870edf961f)"><path fill="#ffffff" d="M 168.792969 1075.023438 C 168.792969 1064.339844 169.054688 1053.664062 169.578125 1042.992188 C 170.101562 1032.320312 170.886719 1021.667969 171.933594 1011.035156 C 172.980469 1000.402344 174.289062 989.804688 175.855469 979.234375 C 177.421875 968.667969 179.246094 958.144531 181.332031 947.664062 C 183.414062 937.183594 185.753906 926.765625 188.351562 916.398438 C 190.945312 906.035156 193.792969 895.742188 196.894531 885.519531 C 199.996094 875.292969 203.34375 865.152344 206.941406 855.09375 C 210.539062 845.035156 214.382812 835.066406 218.472656 825.199219 C 222.558594 815.328125 226.886719 805.5625 231.453125 795.902344 C 236.019531 786.246094 240.820312 776.707031 245.855469 767.28125 C 250.890625 757.859375 256.152344 748.566406 261.644531 739.402344 C 267.136719 730.238281 272.847656 721.214844 278.78125 712.332031 C 284.714844 703.449219 290.863281 694.714844 297.226562 686.132812 C 303.589844 677.554688 310.160156 669.132812 316.933594 660.875 C 323.710938 652.613281 330.683594 644.527344 337.859375 636.609375 C 345.03125 628.695312 352.394531 620.957031 359.945312 613.402344 C 367.5 605.847656 375.234375 598.484375 383.148438 591.308594 C 391.0625 584.132812 399.144531 577.15625 407.402344 570.378906 C 415.660156 563.601562 424.078125 557.03125 432.65625 550.667969 C 441.234375 544.300781 449.964844 538.152344 458.847656 532.214844 C 467.726562 526.28125 476.75 520.566406 485.910156 515.074219 C 495.070312 509.582031 504.363281 504.316406 513.78125 499.28125 C 523.203125 494.242188 532.738281 489.441406 542.394531 484.875 C 552.050781 480.304688 561.8125 475.976562 571.679688 471.886719 C 581.546875 467.800781 591.511719 463.957031 601.566406 460.355469 C 611.625 456.757812 621.761719 453.40625 631.984375 450.304688 C 642.203125 447.203125 652.496094 444.355469 662.855469 441.757812 C 673.21875 439.164062 683.636719 436.824219 694.113281 434.738281 C 704.585938 432.652344 715.109375 430.828125 725.671875 429.261719 C 736.238281 427.691406 746.835938 426.386719 757.464844 425.339844 C 768.09375 424.289062 778.746094 423.503906 789.414062 422.980469 C 800.082031 422.457031 810.753906 422.195312 821.4375 422.195312 C 832.117188 422.195312 842.792969 422.457031 853.460938 422.980469 C 864.128906 423.503906 874.777344 424.289062 885.40625 425.339844 C 896.035156 426.386719 906.632812 427.691406 917.199219 429.261719 C 927.765625 430.828125 938.285156 432.652344 948.761719 434.738281 C 959.238281 436.824219 969.65625 439.164062 980.015625 441.757812 C 990.378906 444.355469 1000.667969 447.203125 1010.890625 450.304688 C 1021.109375 453.40625 1031.25 456.757812 1041.304688 460.355469 C 1051.363281 463.957031 1061.324219 467.800781 1071.191406 471.886719 C 1081.0625 475.976562 1090.824219 480.304688 1100.476562 484.875 C 1110.132812 489.441406 1119.671875 494.242188 1129.089844 499.28125 C 1138.511719 504.316406 1147.800781 509.582031 1156.964844 515.074219 C 1166.125 520.566406 1175.144531 526.28125 1184.027344 532.214844 C 1192.90625 538.152344 1201.636719 544.300781 1210.214844 550.667969 C 1218.796875 557.03125 1227.214844 563.601562 1235.46875 570.378906 C 1243.726562 577.15625 1251.8125 584.132812 1259.726562 591.308594 C 1267.640625 598.484375 1275.375 605.847656 1282.925781 613.402344 C 1290.480469 620.957031 1297.839844 628.695312 1305.015625 636.609375 C 1312.1875 644.527344 1319.160156 652.613281 1325.9375 660.875 C 1332.714844 669.132812 1339.285156 677.554688 1345.644531 686.132812 C 1352.007812 694.714844 1358.15625 703.449219 1364.089844 712.332031 C 1370.023438 721.214844 1375.738281 730.238281 1381.230469 739.402344 C 1386.71875 748.566406 1391.984375 757.859375 1397.019531 767.28125 C 1402.054688 776.707031 1406.855469 786.246094 1411.421875 795.902344 C 1415.988281 805.5625 1420.3125 815.328125 1424.402344 825.199219 C 1428.488281 835.066406 1432.332031 845.035156 1435.929688 855.09375 C 1439.527344 865.152344 1442.878906 875.292969 1445.980469 885.519531 C 1449.078125 895.742188 1451.925781 906.035156 1454.523438 916.398438 C 1457.117188 926.765625 1459.457031 937.183594 1461.542969 947.664062 C 1463.625 958.144531 1465.449219 968.667969 1467.019531 979.234375 C 1468.585938 989.804688 1469.890625 1000.402344 1470.9375 1011.035156 C 1471.984375 1021.667969 1472.769531 1032.320312 1473.296875 1042.992188 C 1473.820312 1053.664062 1474.082031 1064.339844 1474.082031 1075.023438 L 1435.691406 1075.023438 C 1435.691406 1064.96875 1435.445312 1054.917969 1434.949219 1044.875 C 1434.457031 1034.832031 1433.71875 1024.808594 1432.734375 1014.800781 C 1431.746094 1004.792969 1430.515625 994.816406 1429.042969 984.871094 C 1427.566406 974.921875 1425.847656 965.019531 1423.886719 955.15625 C 1421.925781 945.292969 1419.726562 935.484375 1417.28125 925.730469 C 1414.839844 915.976562 1412.160156 906.289062 1409.242188 896.664062 C 1406.324219 887.042969 1403.171875 877.496094 1399.785156 868.03125 C 1396.398438 858.5625 1392.78125 849.183594 1388.933594 839.894531 C 1385.085938 830.601562 1381.015625 821.414062 1376.714844 812.324219 C 1372.417969 803.234375 1367.898438 794.253906 1363.160156 785.386719 C 1358.421875 776.515625 1353.46875 767.769531 1348.300781 759.144531 C 1343.132812 750.519531 1337.753906 742.027344 1332.171875 733.667969 C 1326.585938 725.304688 1320.796875 717.085938 1314.808594 709.011719 C 1308.820312 700.933594 1302.640625 693.007812 1296.261719 685.234375 C 1289.882812 677.460938 1283.320312 669.851562 1276.570312 662.398438 C 1269.816406 654.949219 1262.886719 647.667969 1255.78125 640.558594 C 1248.671875 633.449219 1241.394531 626.515625 1233.945312 619.761719 C 1226.496094 613.011719 1218.886719 606.445312 1211.113281 600.066406 C 1203.34375 593.6875 1195.421875 587.5 1187.347656 581.511719 C 1179.273438 575.519531 1171.054688 569.734375 1162.699219 564.144531 C 1154.339844 558.558594 1145.847656 553.179688 1137.226562 548.011719 C 1128.605469 542.84375 1119.859375 537.886719 1110.992188 533.148438 C 1102.128906 528.40625 1093.152344 523.886719 1084.0625 519.589844 C 1074.976562 515.289062 1065.789062 511.214844 1056.5 507.367188 C 1047.214844 503.519531 1037.835938 499.902344 1028.371094 496.511719 C 1018.90625 493.125 1009.363281 489.972656 999.746094 487.054688 C 990.125 484.132812 980.441406 481.453125 970.6875 479.011719 C 960.9375 476.566406 951.132812 474.363281 941.269531 472.402344 C 931.410156 470.441406 921.511719 468.722656 911.566406 467.246094 C 901.621094 465.769531 891.648438 464.539062 881.644531 463.554688 C 871.640625 462.570312 861.617188 461.828125 851.578125 461.335938 C 841.535156 460.84375 831.488281 460.597656 821.4375 460.597656 C 811.382812 460.597656 801.335938 460.84375 791.296875 461.335938 C 781.253906 461.828125 771.234375 462.570312 761.230469 463.554688 C 751.226562 464.539062 741.25 465.769531 731.304688 467.246094 C 721.363281 468.722656 711.460938 470.441406 701.601562 472.402344 C 691.742188 474.363281 681.9375 476.566406 672.183594 479.011719 C 662.433594 481.453125 652.746094 484.132812 643.128906 487.054688 C 633.507812 489.972656 623.964844 493.125 614.5 496.511719 C 605.035156 499.902344 595.660156 503.519531 586.371094 507.367188 C 577.082031 511.214844 567.894531 515.289062 558.808594 519.589844 C 549.722656 523.886719 540.746094 528.40625 531.878906 533.148438 C 523.011719 537.886719 514.269531 542.84375 505.648438 548.011719 C 497.023438 553.179688 488.535156 558.558594 480.175781 564.144531 C 471.816406 569.734375 463.601562 575.519531 455.527344 581.511719 C 447.449219 587.5 439.527344 593.6875 431.757812 600.066406 C 423.988281 606.445312 416.378906 613.011719 408.929688 619.761719 C 401.480469 626.515625 394.203125 633.449219 387.09375 640.558594 C 379.984375 647.667969 373.054688 654.949219 366.304688 662.398438 C 359.554688 669.851562 352.988281 677.460938 346.609375 685.234375 C 340.234375 693.007812 334.050781 700.933594 328.0625 709.011719 C 322.074219 717.085938 316.289062 725.304688 310.703125 733.667969 C 305.117188 742.027344 299.742188 750.519531 294.574219 759.144531 C 289.40625 767.769531 284.453125 776.515625 279.710938 785.386719 C 274.972656 794.253906 270.457031 803.234375 266.15625 812.324219 C 261.859375 821.414062 257.785156 830.601562 253.9375 839.894531 C 250.09375 849.183594 246.476562 858.5625 243.089844 868.03125 C 239.703125 877.496094 236.550781 887.042969 233.632812 896.664062 C 230.714844 906.289062 228.03125 915.976562 225.589844 925.730469 C 223.148438 935.484375 220.945312 945.292969 218.984375 955.15625 C 217.023438 965.019531 215.304688 974.921875 213.832031 984.871094 C 212.355469 994.816406 211.125 1004.792969 210.140625 1014.800781 C 209.15625 1024.808594 208.414062 1034.832031 207.921875 1044.875 C 207.429688 1054.917969 207.183594 1064.96875 207.183594 1075.023438 Z M 168.792969 1075.023438 " fill-opacity="1" fill-rule="nonzero"/></g></g><path fill="#009b3a" d="M 745.796875 458.824219 C 746.546875 458.730469 747.28125 458.558594 747.996094 458.304688 C 748.714844 458.050781 749.398438 457.722656 750.054688 457.320312 C 750.707031 456.914062 751.320312 456.441406 751.886719 455.902344 C 752.453125 455.363281 752.964844 454.765625 753.425781 454.109375 C 753.882812 453.453125 754.277344 452.753906 754.609375 452.007812 C 754.941406 451.265625 755.203125 450.488281 755.394531 449.683594 C 755.589844 448.878906 755.707031 448.054688 755.753906 447.21875 C 755.800781 446.382812 755.773438 445.546875 755.667969 444.714844 C 755.566406 443.878906 755.394531 443.0625 755.144531 442.261719 C 754.898438 441.460938 754.585938 440.695312 754.203125 439.960938 C 753.820312 439.222656 753.378906 438.535156 752.875 437.890625 C 752.375 437.25 751.820312 436.667969 751.21875 436.140625 C 750.617188 435.617188 749.972656 435.160156 749.292969 434.773438 C 748.613281 434.386719 747.90625 434.078125 747.171875 433.84375 C 746.4375 433.609375 745.695312 433.457031 744.9375 433.382812 C 744.183594 433.3125 743.429688 433.320312 742.679688 433.414062 C 741.929688 433.503906 741.195312 433.679688 740.476562 433.929688 C 739.761719 434.183594 739.078125 434.511719 738.421875 434.917969 C 737.769531 435.320312 737.15625 435.792969 736.589844 436.335938 C 736.023438 436.875 735.511719 437.472656 735.050781 438.128906 C 734.59375 438.78125 734.199219 439.480469 733.867188 440.226562 C 733.535156 440.972656 733.273438 441.746094 733.082031 442.554688 C 732.886719 443.359375 732.769531 444.179688 732.722656 445.015625 C 732.675781 445.851562 732.703125 446.6875 732.808594 447.523438 C 732.910156 448.355469 733.082031 449.175781 733.332031 449.972656 C 733.578125 450.773438 733.890625 451.542969 734.273438 452.277344 C 734.65625 453.011719 735.097656 453.703125 735.601562 454.34375 C 736.101562 454.988281 736.65625 455.570312 737.257812 456.09375 C 737.859375 456.621094 738.503906 457.074219 739.183594 457.460938 C 739.863281 457.847656 740.570312 458.160156 741.304688 458.394531 C 742.039062 458.628906 742.78125 458.78125 743.539062 458.851562 C 744.292969 458.925781 745.046875 458.914062 745.796875 458.824219 M 745.21875 454.105469 C 745.660156 454.050781 746.089844 453.945312 746.507812 453.789062 C 746.929688 453.636719 747.332031 453.433594 747.714844 453.179688 C 748.097656 452.929688 748.453125 452.636719 748.785156 452.300781 C 749.113281 451.964844 749.414062 451.589844 749.679688 451.183594 C 749.945312 450.773438 750.171875 450.335938 750.363281 449.871094 C 750.554688 449.402344 750.707031 448.917969 750.816406 448.414062 C 750.925781 447.90625 750.992188 447.394531 751.015625 446.867188 C 751.035156 446.34375 751.015625 445.816406 750.953125 445.292969 C 750.886719 444.769531 750.78125 444.253906 750.632812 443.75 C 750.484375 443.246094 750.292969 442.765625 750.066406 442.300781 C 749.835938 441.835938 749.574219 441.402344 749.277344 440.996094 C 748.976562 440.589844 748.648438 440.222656 748.292969 439.886719 C 747.933594 439.554688 747.554688 439.265625 747.152344 439.019531 C 746.75 438.773438 746.332031 438.574219 745.902344 438.425781 C 745.46875 438.273438 745.03125 438.175781 744.585938 438.125 C 744.140625 438.074219 743.699219 438.078125 743.257812 438.132812 C 742.816406 438.1875 742.386719 438.292969 741.96875 438.445312 C 741.546875 438.601562 741.144531 438.804688 740.761719 439.054688 C 740.378906 439.304688 740.023438 439.601562 739.691406 439.9375 C 739.363281 440.273438 739.0625 440.644531 738.796875 441.054688 C 738.53125 441.464844 738.304688 441.902344 738.113281 442.367188 C 737.921875 442.832031 737.769531 443.320312 737.660156 443.824219 C 737.550781 444.328125 737.484375 444.84375 737.460938 445.371094 C 737.4375 445.894531 737.460938 446.417969 737.523438 446.941406 C 737.589844 447.46875 737.695312 447.980469 737.84375 448.484375 C 737.992188 448.988281 738.183594 449.472656 738.410156 449.9375 C 738.640625 450.398438 738.902344 450.835938 739.199219 451.242188 C 739.5 451.648438 739.828125 452.015625 740.183594 452.347656 C 740.542969 452.679688 740.921875 452.96875 741.324219 453.214844 C 741.726562 453.464844 742.144531 453.660156 742.574219 453.8125 C 743.007812 453.960938 743.445312 454.0625 743.890625 454.113281 C 744.335938 454.160156 744.777344 454.160156 745.21875 454.105469 " fill-opacity="1" fill-rule="evenodd"/><path fill="#009b3a" d="M 766.652344 456.511719 L 771.394531 456.179688 L 770.730469 446.695312 L 780.945312 445.980469 C 781.46875 445.941406 781.988281 445.855469 782.5 445.714844 C 783.007812 445.578125 783.5 445.390625 783.972656 445.15625 C 784.445312 444.917969 784.890625 444.640625 785.308594 444.316406 C 785.726562 443.992188 786.105469 443.632812 786.453125 443.230469 C 786.800781 442.832031 787.105469 442.40625 787.367188 441.945312 C 787.628906 441.488281 787.84375 441.007812 788.011719 440.507812 C 788.179688 440.003906 788.296875 439.492188 788.363281 438.96875 C 788.429688 438.445312 788.445312 437.917969 788.40625 437.390625 C 788.371094 436.867188 788.28125 436.347656 788.144531 435.835938 C 788.003906 435.328125 787.816406 434.835938 787.582031 434.363281 C 787.34375 433.890625 787.066406 433.445312 786.742188 433.027344 C 786.417969 432.609375 786.058594 432.226562 785.660156 431.882812 C 785.261719 431.535156 784.832031 431.230469 784.375 430.96875 C 783.914062 430.707031 783.4375 430.492188 782.933594 430.324219 C 782.433594 430.15625 781.921875 430.039062 781.398438 429.972656 C 780.875 429.90625 780.347656 429.890625 779.820312 429.925781 L 765.230469 430.949219 Z M 770.398438 441.953125 L 780.246094 441.261719 C 780.683594 441.230469 781.09375 441.121094 781.484375 440.925781 C 781.875 440.730469 782.214844 440.46875 782.5 440.140625 C 782.789062 439.808594 783 439.4375 783.136719 439.023438 C 783.277344 438.609375 783.332031 438.183594 783.300781 437.75 C 783.269531 437.3125 783.15625 436.902344 782.960938 436.511719 C 782.769531 436.121094 782.507812 435.78125 782.175781 435.496094 C 781.847656 435.207031 781.476562 434.996094 781.0625 434.859375 C 780.648438 434.71875 780.222656 434.664062 779.789062 434.695312 L 769.941406 435.382812 Z M 770.398438 441.953125 " fill-opacity="1" fill-rule="evenodd"/><path fill="#009b3a" d="M 788.355469 454.992188 C 788.097656 451.34375 787.539062 443.320312 782.066406 443.703125 L 775.136719 444.1875 C 783.160156 443.625 783.722656 451.652344 783.976562 455.300781 " fill-opacity="1" fill-rule="nonzero"/><path fill="#009b3a" d="M 799.089844 454.492188 L 811.152344 454.28125 C 811.871094 454.269531 812.585938 454.1875 813.289062 454.03125 C 813.992188 453.878906 814.675781 453.660156 815.335938 453.371094 C 815.996094 453.085938 816.621094 452.738281 817.214844 452.324219 C 817.804688 451.914062 818.351562 451.449219 818.851562 450.933594 C 819.351562 450.414062 819.796875 449.851562 820.1875 449.246094 C 820.578125 448.640625 820.902344 448.003906 821.167969 447.332031 C 821.429688 446.660156 821.628906 445.972656 821.753906 445.261719 C 821.882812 444.554688 821.941406 443.839844 821.929688 443.121094 L 821.863281 439.460938 C 821.851562 438.742188 821.769531 438.03125 821.617188 437.324219 C 821.464844 436.621094 821.242188 435.941406 820.957031 435.277344 C 820.667969 434.617188 820.320312 433.992188 819.910156 433.398438 C 819.5 432.808594 819.035156 432.261719 818.515625 431.761719 C 818 431.261719 817.4375 430.816406 816.832031 430.425781 C 816.226562 430.035156 815.585938 429.710938 814.917969 429.445312 C 814.246094 429.179688 813.558594 428.984375 812.847656 428.855469 C 812.140625 428.730469 811.425781 428.671875 810.707031 428.683594 L 798.640625 428.894531 Z M 803.757812 449.65625 L 810.703125 449.535156 C 811.160156 449.527344 811.609375 449.472656 812.058594 449.375 C 812.503906 449.28125 812.933594 449.140625 813.351562 448.957031 C 813.769531 448.777344 814.167969 448.554688 814.542969 448.296875 C 814.917969 448.035156 815.261719 447.742188 815.582031 447.414062 C 815.898438 447.085938 816.179688 446.730469 816.425781 446.34375 C 816.671875 445.960938 816.878906 445.558594 817.046875 445.132812 C 817.214844 444.707031 817.339844 444.269531 817.417969 443.824219 C 817.5 443.375 817.535156 442.921875 817.527344 442.464844 L 817.492188 440.269531 C 817.484375 439.8125 817.429688 439.363281 817.332031 438.917969 C 817.238281 438.472656 817.097656 438.039062 816.914062 437.621094 C 816.734375 437.203125 816.511719 436.804688 816.253906 436.429688 C 815.992188 436.054688 815.699219 435.710938 815.371094 435.394531 C 815.042969 435.078125 814.6875 434.792969 814.304688 434.546875 C 813.917969 434.300781 813.515625 434.09375 813.089844 433.925781 C 812.667969 433.757812 812.230469 433.636719 811.78125 433.554688 C 811.332031 433.472656 810.878906 433.4375 810.421875 433.445312 L 803.476562 433.566406 Z M 803.757812 449.65625 " fill-opacity="1" fill-rule="evenodd"/><path fill="#009b3a" d="M 831.585938 454.171875 L 854.605469 454.976562 L 854.773438 450.226562 L 836.136719 449.574219 L 836.367188 442.996094 L 850.984375 443.503906 L 851.136719 439.117188 L 836.519531 438.609375 L 836.699219 433.492188 L 854.238281 434.105469 L 854.402344 429.351562 L 832.480469 428.585938 Z M 831.585938 454.171875 " fill-opacity="1" fill-rule="nonzero"/><path fill="#009b3a" d="M 864.054688 455.554688 L 868.425781 455.9375 L 869.957031 438.449219 L 873.527344 456.382812 L 877.53125 456.734375 L 884.160156 439.691406 L 882.632812 457.179688 L 887.003906 457.5625 L 889.234375 432.058594 L 882.859375 431.5 L 876.230469 448.542969 L 872.660156 430.609375 L 866.285156 430.050781 Z M 864.054688 455.554688 " fill-opacity="1" fill-rule="nonzero"/><path fill="#009b3a" d="M 917.085938 461.539062 L 936.003906 464.789062 L 936.746094 460.464844 L 922.152344 457.957031 L 923.140625 452.1875 L 935.035156 454.230469 L 935.777344 449.90625 L 923.886719 447.863281 L 924.566406 443.898438 L 938.710938 446.328125 L 939.453125 442.003906 L 920.984375 438.828125 Z M 917.085938 461.539062 " fill-opacity="1" fill-rule="nonzero"/><path fill="#009b3a" d="M 965.683594 471.085938 L 970.285156 472.277344 L 972.667969 463.070312 L 982.578125 465.632812 C 983.089844 465.765625 983.609375 465.847656 984.136719 465.878906 C 984.664062 465.90625 985.1875 465.886719 985.710938 465.8125 C 986.234375 465.738281 986.746094 465.617188 987.246094 465.441406 C 987.742188 465.265625 988.21875 465.046875 988.675781 464.777344 C 989.128906 464.507812 989.554688 464.199219 989.949219 463.847656 C 990.34375 463.496094 990.699219 463.109375 991.015625 462.6875 C 991.335938 462.265625 991.609375 461.816406 991.835938 461.339844 C 992.066406 460.863281 992.246094 460.371094 992.378906 459.859375 C 992.511719 459.347656 992.59375 458.828125 992.625 458.300781 C 992.652344 457.773438 992.632812 457.25 992.558594 456.726562 C 992.484375 456.203125 992.359375 455.691406 992.1875 455.191406 C 992.011719 454.695312 991.792969 454.214844 991.523438 453.761719 C 991.253906 453.304688 990.945312 452.882812 990.59375 452.488281 C 990.242188 452.09375 989.855469 451.738281 989.433594 451.417969 C 989.011719 451.101562 988.5625 450.828125 988.085938 450.597656 C 987.613281 450.367188 987.117188 450.1875 986.605469 450.054688 L 972.445312 446.390625 Z M 973.855469 458.46875 L 983.414062 460.941406 C 983.835938 461.050781 984.265625 461.074219 984.695312 461.011719 C 985.128906 460.953125 985.53125 460.8125 985.910156 460.589844 C 986.285156 460.367188 986.605469 460.082031 986.867188 459.734375 C 987.128906 459.386719 987.316406 459 987.425781 458.578125 C 987.535156 458.15625 987.558594 457.726562 987.496094 457.296875 C 987.4375 456.863281 987.296875 456.457031 987.074219 456.082031 C 986.851562 455.707031 986.566406 455.386719 986.21875 455.125 C 985.871094 454.863281 985.484375 454.675781 985.0625 454.566406 L 975.503906 452.09375 Z M 973.855469 458.46875 " fill-opacity="1" fill-rule="evenodd"/><path fill="#009b3a" d="M 997.085938 479.464844 L 1001.621094 480.894531 L 1004.476562 471.828125 L 1014.242188 474.90625 C 1014.746094 475.066406 1015.257812 475.171875 1015.785156 475.230469 C 1016.308594 475.289062 1016.835938 475.292969 1017.363281 475.246094 C 1017.886719 475.203125 1018.402344 475.105469 1018.910156 474.957031 C 1019.417969 474.808594 1019.90625 474.613281 1020.375 474.367188 C 1020.84375 474.125 1021.285156 473.835938 1021.695312 473.507812 C 1022.105469 473.175781 1022.484375 472.808594 1022.824219 472.402344 C 1023.160156 472 1023.457031 471.566406 1023.710938 471.101562 C 1023.964844 470.640625 1024.171875 470.15625 1024.332031 469.652344 C 1024.492188 469.148438 1024.597656 468.632812 1024.65625 468.109375 C 1024.714844 467.582031 1024.71875 467.058594 1024.671875 466.53125 C 1024.628906 466.003906 1024.53125 465.488281 1024.382812 464.980469 C 1024.234375 464.472656 1024.039062 463.984375 1023.796875 463.515625 C 1023.550781 463.046875 1023.265625 462.609375 1022.933594 462.195312 C 1022.601562 461.785156 1022.234375 461.40625 1021.832031 461.070312 C 1021.425781 460.730469 1020.992188 460.433594 1020.53125 460.179688 C 1020.066406 459.921875 1019.582031 459.71875 1019.078125 459.558594 L 1005.132812 455.160156 Z M 1005.90625 467.292969 L 1015.320312 470.261719 C 1015.738281 470.390625 1016.164062 470.4375 1016.597656 470.402344 C 1017.035156 470.363281 1017.445312 470.242188 1017.832031 470.042969 C 1018.21875 469.839844 1018.550781 469.570312 1018.832031 469.238281 C 1019.113281 468.902344 1019.320312 468.527344 1019.449219 468.113281 C 1019.582031 467.695312 1019.628906 467.269531 1019.589844 466.835938 C 1019.550781 466.398438 1019.433594 465.988281 1019.230469 465.601562 C 1019.027344 465.214844 1018.761719 464.882812 1018.425781 464.601562 C 1018.09375 464.320312 1017.71875 464.113281 1017.300781 463.984375 L 1007.886719 461.011719 Z M 1005.90625 467.292969 " fill-opacity="1" fill-rule="evenodd"/><path fill="#009b3a" d="M 1017.835938 486.007812 C 1018.933594 482.519531 1021.351562 474.847656 1016.121094 473.199219 L 1009.496094 471.109375 C 1017.167969 473.527344 1014.75 481.203125 1013.648438 484.691406 " fill-opacity="1" fill-rule="nonzero"/><path fill="#009b3a" d="M 1038.792969 493.511719 C 1039.5 493.777344 1040.230469 493.960938 1040.984375 494.070312 C 1041.738281 494.175781 1042.496094 494.199219 1043.261719 494.144531 C 1044.03125 494.085938 1044.789062 493.949219 1045.542969 493.734375 C 1046.292969 493.515625 1047.027344 493.222656 1047.734375 492.851562 C 1048.445312 492.484375 1049.117188 492.046875 1049.753906 491.539062 C 1050.394531 491.03125 1050.984375 490.464844 1051.527344 489.835938 C 1052.070312 489.210938 1052.554688 488.539062 1052.980469 487.816406 C 1053.410156 487.097656 1053.769531 486.34375 1054.0625 485.554688 C 1054.355469 484.769531 1054.578125 483.964844 1054.730469 483.140625 C 1054.878906 482.316406 1054.957031 481.488281 1054.957031 480.660156 C 1054.957031 479.832031 1054.882812 479.015625 1054.734375 478.214844 C 1054.585938 477.414062 1054.363281 476.640625 1054.074219 475.898438 C 1053.78125 475.152344 1053.421875 474.453125 1052.996094 473.792969 C 1052.570312 473.136719 1052.085938 472.535156 1051.542969 471.988281 C 1051.003906 471.441406 1050.414062 470.960938 1049.773438 470.550781 C 1049.136719 470.136719 1048.464844 469.796875 1047.757812 469.53125 C 1047.046875 469.265625 1046.316406 469.082031 1045.566406 468.976562 C 1044.8125 468.867188 1044.054688 468.84375 1043.289062 468.902344 C 1042.519531 468.957031 1041.761719 469.09375 1041.007812 469.3125 C 1040.253906 469.527344 1039.523438 469.820312 1038.816406 470.191406 C 1038.105469 470.558594 1037.433594 471 1036.796875 471.507812 C 1036.15625 472.011719 1035.566406 472.578125 1035.023438 473.207031 C 1034.480469 473.832031 1033.996094 474.503906 1033.570312 475.226562 C 1033.140625 475.945312 1032.78125 476.699219 1032.488281 477.488281 C 1032.191406 478.273438 1031.96875 479.082031 1031.820312 479.902344 C 1031.667969 480.726562 1031.59375 481.554688 1031.59375 482.382812 C 1031.59375 483.210938 1031.667969 484.027344 1031.816406 484.828125 C 1031.964844 485.628906 1032.183594 486.402344 1032.476562 487.148438 C 1032.769531 487.890625 1033.128906 488.59375 1033.554688 489.25 C 1033.980469 489.90625 1034.464844 490.507812 1035.007812 491.054688 C 1035.546875 491.601562 1036.136719 492.082031 1036.773438 492.496094 C 1037.414062 492.90625 1038.085938 493.246094 1038.792969 493.511719 M 1040.457031 489.058594 C 1040.875 489.214844 1041.304688 489.320312 1041.75 489.375 C 1042.191406 489.433594 1042.640625 489.4375 1043.097656 489.390625 C 1043.550781 489.347656 1044.003906 489.25 1044.453125 489.105469 C 1044.902344 488.960938 1045.339844 488.765625 1045.761719 488.527344 C 1046.1875 488.285156 1046.59375 488.003906 1046.976562 487.679688 C 1047.363281 487.355469 1047.71875 486.992188 1048.050781 486.59375 C 1048.378906 486.199219 1048.675781 485.769531 1048.941406 485.316406 C 1049.203125 484.859375 1049.425781 484.386719 1049.609375 483.890625 C 1049.796875 483.398438 1049.9375 482.890625 1050.039062 482.375 C 1050.140625 481.859375 1050.195312 481.34375 1050.207031 480.828125 C 1050.21875 480.308594 1050.1875 479.804688 1050.109375 479.304688 C 1050.03125 478.808594 1049.910156 478.328125 1049.746094 477.867188 C 1049.582031 477.410156 1049.378906 476.976562 1049.136719 476.570312 C 1048.894531 476.167969 1048.617188 475.800781 1048.300781 475.464844 C 1047.988281 475.132812 1047.644531 474.839844 1047.273438 474.59375 C 1046.902344 474.34375 1046.507812 474.140625 1046.09375 473.984375 C 1045.675781 473.828125 1045.246094 473.722656 1044.800781 473.667969 C 1044.359375 473.613281 1043.910156 473.605469 1043.453125 473.652344 C 1042.996094 473.699219 1042.546875 473.792969 1042.097656 473.9375 C 1041.648438 474.085938 1041.210938 474.277344 1040.785156 474.515625 C 1040.363281 474.757812 1039.957031 475.039062 1039.570312 475.363281 C 1039.1875 475.691406 1038.828125 476.050781 1038.5 476.449219 C 1038.167969 476.847656 1037.875 477.273438 1037.609375 477.726562 C 1037.347656 478.183594 1037.125 478.65625 1036.9375 479.152344 C 1036.753906 479.648438 1036.613281 480.152344 1036.511719 480.667969 C 1036.410156 481.183594 1036.355469 481.699219 1036.34375 482.21875 C 1036.332031 482.734375 1036.363281 483.242188 1036.441406 483.738281 C 1036.519531 484.238281 1036.640625 484.714844 1036.804688 485.175781 C 1036.964844 485.636719 1037.167969 486.066406 1037.414062 486.472656 C 1037.65625 486.875 1037.933594 487.246094 1038.246094 487.578125 C 1038.5625 487.910156 1038.90625 488.203125 1039.277344 488.453125 C 1039.648438 488.699219 1040.042969 488.902344 1040.457031 489.058594 " fill-opacity="1" fill-rule="evenodd"/><g clip-path="url(#71a9cfb8ab)"><g clip-path="url(#3cb8c8b5ab)"><g clip-path="url(#4933cba48e)"><path fill="#009b3a" d="M 1068.921875 505.6875 C 1069.613281 505.988281 1070.335938 506.210938 1071.078125 506.359375 C 1071.824219 506.503906 1072.582031 506.566406 1073.351562 506.550781 C 1074.121094 506.535156 1074.886719 506.4375 1075.648438 506.261719 C 1076.410156 506.082031 1077.15625 505.828125 1077.882812 505.496094 C 1078.613281 505.164062 1079.308594 504.761719 1079.972656 504.289062 C 1080.636719 503.816406 1081.253906 503.28125 1081.828125 502.683594 C 1082.402344 502.089844 1082.921875 501.441406 1083.386719 500.746094 C 1083.851562 500.046875 1084.25 499.3125 1084.585938 498.542969 C 1084.921875 497.773438 1085.183594 496.980469 1085.378906 496.164062 C 1085.570312 495.347656 1085.691406 494.527344 1085.734375 493.699219 C 1085.777344 492.871094 1085.746094 492.054688 1085.640625 491.246094 C 1085.535156 490.4375 1085.355469 489.65625 1085.101562 488.894531 C 1084.847656 488.136719 1084.523438 487.417969 1084.132812 486.742188 C 1083.746094 486.0625 1083.292969 485.433594 1082.78125 484.859375 C 1082.269531 484.289062 1081.703125 483.777344 1081.089844 483.332031 C 1080.472656 482.886719 1079.820312 482.511719 1079.125 482.210938 C 1078.433594 481.90625 1077.714844 481.683594 1076.96875 481.539062 C 1076.222656 481.394531 1075.464844 481.328125 1074.695312 481.34375 C 1073.925781 481.363281 1073.160156 481.457031 1072.398438 481.636719 C 1071.636719 481.8125 1070.890625 482.066406 1070.164062 482.398438 C 1069.4375 482.730469 1068.742188 483.132812 1068.078125 483.605469 C 1067.414062 484.082031 1066.792969 484.617188 1066.21875 485.210938 C 1065.644531 485.808594 1065.125 486.457031 1064.660156 487.152344 C 1064.195312 487.851562 1063.796875 488.585938 1063.460938 489.355469 C 1063.125 490.125 1062.863281 490.917969 1062.667969 491.734375 C 1062.476562 492.546875 1062.355469 493.371094 1062.3125 494.195312 C 1062.269531 495.023438 1062.300781 495.84375 1062.40625 496.652344 C 1062.511719 497.460938 1062.695312 498.242188 1062.945312 499 C 1063.199219 499.757812 1063.523438 500.476562 1063.914062 501.15625 C 1064.304688 501.835938 1064.753906 502.460938 1065.269531 503.035156 C 1065.78125 503.609375 1066.34375 504.121094 1066.957031 504.566406 C 1067.574219 505.011719 1068.226562 505.386719 1068.921875 505.6875 M 1070.816406 501.328125 C 1071.222656 501.503906 1071.648438 501.632812 1072.089844 501.710938 C 1072.527344 501.792969 1072.976562 501.820312 1073.433594 501.796875 C 1073.890625 501.777344 1074.347656 501.703125 1074.804688 501.582031 C 1075.257812 501.460938 1075.707031 501.292969 1076.140625 501.074219 C 1076.578125 500.855469 1077 500.59375 1077.398438 500.292969 C 1077.800781 499.988281 1078.175781 499.644531 1078.527344 499.265625 C 1078.878906 498.886719 1079.195312 498.476562 1079.480469 498.035156 C 1079.769531 497.59375 1080.015625 497.132812 1080.226562 496.648438 C 1080.4375 496.160156 1080.605469 495.664062 1080.734375 495.15625 C 1080.859375 494.644531 1080.945312 494.132812 1080.980469 493.617188 C 1081.019531 493.101562 1081.015625 492.59375 1080.964844 492.09375 C 1080.914062 491.589844 1080.816406 491.105469 1080.679688 490.640625 C 1080.539062 490.171875 1080.359375 489.730469 1080.136719 489.3125 C 1079.914062 488.894531 1079.65625 488.511719 1079.359375 488.164062 C 1079.066406 487.816406 1078.738281 487.507812 1078.378906 487.238281 C 1078.023438 486.96875 1077.636719 486.746094 1077.230469 486.570312 C 1076.824219 486.394531 1076.398438 486.265625 1075.960938 486.183594 C 1075.519531 486.105469 1075.070312 486.078125 1074.613281 486.097656 C 1074.15625 486.121094 1073.699219 486.191406 1073.246094 486.316406 C 1072.789062 486.4375 1072.34375 486.605469 1071.90625 486.824219 C 1071.46875 487.039062 1071.050781 487.300781 1070.648438 487.605469 C 1070.246094 487.910156 1069.871094 488.253906 1069.519531 488.632812 C 1069.171875 489.011719 1068.851562 489.421875 1068.566406 489.863281 C 1068.28125 490.304688 1068.03125 490.765625 1067.820312 491.25 C 1067.609375 491.734375 1067.441406 492.230469 1067.3125 492.742188 C 1067.1875 493.25 1067.105469 493.765625 1067.066406 494.28125 C 1067.027344 494.796875 1067.03125 495.304688 1067.085938 495.804688 C 1067.136719 496.304688 1067.230469 496.789062 1067.371094 497.257812 C 1067.507812 497.726562 1067.6875 498.167969 1067.910156 498.585938 C 1068.132812 499 1068.390625 499.382812 1068.6875 499.734375 C 1068.984375 500.082031 1069.308594 500.390625 1069.667969 500.660156 C 1070.027344 500.925781 1070.410156 501.148438 1070.816406 501.328125 " fill-opacity="1" fill-rule="evenodd"/></g></g></g><path fill="#009b3a" d="M 1075.699219 494.679688 L 1084.585938 498.542969 L 1083.128906 501.894531 L 1074.242188 498.03125 Z M 1075.699219 494.679688 " fill-opacity="1" fill-rule="nonzero"/><path fill="#009b3a" d="M 1081.234375 497.085938 L 1084.585938 498.542969 L 1079.484375 510.28125 L 1076.128906 508.824219 Z M 1081.234375 497.085938 " fill-opacity="1" fill-rule="nonzero"/><path fill="#009b3a" d="M 1088.0625 514.285156 L 1092.316406 516.40625 L 1096.558594 507.894531 L 1105.71875 512.464844 C 1106.191406 512.699219 1106.683594 512.886719 1107.195312 513.027344 C 1107.703125 513.164062 1108.222656 513.253906 1108.75 513.289062 C 1109.277344 513.328125 1109.800781 513.3125 1110.324219 513.246094 C 1110.847656 513.179688 1111.359375 513.0625 1111.863281 512.894531 C 1112.363281 512.726562 1112.84375 512.511719 1113.300781 512.25 C 1113.757812 511.988281 1114.1875 511.683594 1114.585938 511.335938 C 1114.984375 510.988281 1115.347656 510.605469 1115.667969 510.1875 C 1115.992188 509.773438 1116.273438 509.328125 1116.507812 508.855469 C 1116.742188 508.378906 1116.929688 507.890625 1117.070312 507.378906 C 1117.210938 506.871094 1117.296875 506.351562 1117.332031 505.824219 C 1117.371094 505.296875 1117.355469 504.773438 1117.289062 504.25 C 1117.222656 503.722656 1117.105469 503.210938 1116.9375 502.710938 C 1116.769531 502.210938 1116.554688 501.730469 1116.292969 501.269531 C 1116.03125 500.8125 1115.726562 500.382812 1115.378906 499.984375 C 1115.035156 499.585938 1114.652344 499.226562 1114.234375 498.902344 C 1113.816406 498.578125 1113.371094 498.296875 1112.898438 498.0625 L 1099.808594 491.535156 Z M 1098.679688 503.640625 L 1107.515625 508.046875 C 1107.90625 508.242188 1108.316406 508.351562 1108.753906 508.382812 C 1109.1875 508.414062 1109.613281 508.359375 1110.027344 508.222656 C 1110.441406 508.082031 1110.8125 507.871094 1111.140625 507.585938 C 1111.472656 507.296875 1111.734375 506.960938 1111.925781 506.570312 C 1112.121094 506.179688 1112.234375 505.765625 1112.265625 505.328125 C 1112.296875 504.894531 1112.242188 504.46875 1112.101562 504.054688 C 1111.964844 503.640625 1111.753906 503.269531 1111.464844 502.941406 C 1111.179688 502.613281 1110.839844 502.347656 1110.449219 502.15625 L 1101.617188 497.75 Z M 1098.679688 503.640625 " fill-opacity="1" fill-rule="evenodd"/><path fill="#009b3a" d="M 1107.53125 523.992188 C 1109.164062 520.71875 1112.753906 513.519531 1107.84375 511.070312 L 1101.628906 507.972656 C 1108.828125 511.5625 1105.238281 518.761719 1103.605469 522.035156 " fill-opacity="1" fill-rule="nonzero"/><path fill="#009b3a" d="M 1117.035156 529.011719 L 1137.085938 540.355469 L 1139.425781 536.21875 L 1123.195312 527.03125 L 1126.4375 521.304688 L 1139.164062 528.507812 L 1141.324219 524.6875 L 1128.597656 517.484375 L 1131.117188 513.027344 L 1146.390625 521.671875 L 1148.734375 517.535156 L 1129.640625 506.726562 Z M 1117.035156 529.011719 " fill-opacity="1" fill-rule="nonzero"/><path fill="#009b3a" d="M 1154.378906 541.542969 C 1153.003906 543.703125 1154.398438 546.105469 1157.480469 548.074219 C 1160.5625 550.039062 1162.664062 549.964844 1163.550781 548.582031 C 1166.351562 544.183594 1150.167969 537.773438 1155.15625 530.113281 C 1159.457031 523.53125 1166.8125 528.652344 1169.589844 530.421875 C 1172.363281 532.1875 1176.820312 536.765625 1173.355469 542.035156 L 1168.652344 539.039062 C 1170.125 536.726562 1168.507812 534.5 1166.039062 532.929688 C 1163.652344 531.40625 1161.710938 530.710938 1160.285156 532.949219 C 1157.898438 536.523438 1173.761719 543.269531 1168.898438 550.902344 C 1165.3125 556.535156 1159.074219 554.074219 1154.914062 551.421875 C 1151.367188 549.164062 1146.066406 543.835938 1149.519531 538.445312 Z M 1154.378906 541.542969 " fill-opacity="1" fill-rule="nonzero"/><path fill="#009b3a" d="M 1181.835938 559.703125 C 1180.347656 561.789062 1181.613281 564.261719 1184.589844 566.386719 C 1187.566406 568.511719 1189.667969 568.550781 1190.625 567.210938 C 1193.652344 562.96875 1177.824219 555.71875 1183.207031 548.328125 C 1187.847656 541.980469 1194.929688 547.480469 1197.605469 549.394531 C 1200.285156 551.304688 1204.496094 556.105469 1200.757812 561.1875 L 1196.21875 557.949219 C 1197.8125 555.71875 1196.3125 553.410156 1193.933594 551.710938 C 1191.625 550.066406 1189.722656 549.269531 1188.183594 551.429688 C 1185.613281 554.875 1201.101562 562.441406 1195.84375 569.8125 C 1191.972656 575.246094 1185.871094 572.464844 1181.851562 569.597656 C 1178.429688 567.15625 1173.414062 561.558594 1177.144531 556.359375 Z M 1181.835938 559.703125 " fill-opacity="1" fill-rule="nonzero"/><path fill="#009b3a" d="M 1207.800781 589.160156 C 1208.394531 589.628906 1209.03125 590.03125 1209.714844 590.367188 C 1210.394531 590.699219 1211.109375 590.957031 1211.859375 591.140625 C 1212.605469 591.324219 1213.371094 591.429688 1214.152344 591.457031 C 1214.933594 591.480469 1215.71875 591.429688 1216.507812 591.296875 C 1217.296875 591.164062 1218.074219 590.957031 1218.835938 590.671875 C 1219.601562 590.382812 1220.335938 590.027344 1221.046875 589.601562 C 1221.757812 589.171875 1222.425781 588.683594 1223.054688 588.128906 C 1223.683594 587.578125 1224.257812 586.972656 1224.78125 586.3125 C 1225.304688 585.65625 1225.765625 584.957031 1226.164062 584.222656 C 1226.558594 583.484375 1226.886719 582.722656 1227.144531 581.933594 C 1227.402344 581.144531 1227.582031 580.347656 1227.6875 579.539062 C 1227.792969 578.730469 1227.824219 577.925781 1227.773438 577.128906 C 1227.726562 576.332031 1227.601562 575.554688 1227.398438 574.796875 C 1227.199219 574.039062 1226.925781 573.316406 1226.578125 572.628906 C 1226.230469 571.945312 1225.816406 571.304688 1225.339844 570.714844 C 1224.863281 570.125 1224.328125 569.59375 1223.734375 569.125 C 1223.140625 568.652344 1222.503906 568.25 1221.824219 567.917969 C 1221.140625 567.582031 1220.425781 567.324219 1219.679688 567.140625 C 1218.933594 566.957031 1218.167969 566.851562 1217.382812 566.828125 C 1216.601562 566.800781 1215.816406 566.855469 1215.027344 566.988281 C 1214.238281 567.117188 1213.464844 567.328125 1212.699219 567.613281 C 1211.9375 567.898438 1211.199219 568.253906 1210.488281 568.683594 C 1209.78125 569.109375 1209.109375 569.601562 1208.480469 570.152344 C 1207.851562 570.707031 1207.277344 571.3125 1206.753906 571.96875 C 1206.230469 572.628906 1205.769531 573.324219 1205.375 574.0625 C 1204.976562 574.796875 1204.648438 575.5625 1204.390625 576.347656 C 1204.136719 577.136719 1203.953125 577.933594 1203.847656 578.742188 C 1203.742188 579.550781 1203.714844 580.355469 1203.761719 581.152344 C 1203.808594 581.953125 1203.933594 582.730469 1204.136719 583.488281 C 1204.339844 584.242188 1204.613281 584.964844 1204.957031 585.652344 C 1205.304688 586.339844 1205.71875 586.976562 1206.195312 587.566406 C 1206.675781 588.15625 1207.210938 588.6875 1207.800781 589.160156 M 1210.761719 585.4375 C 1211.109375 585.714844 1211.484375 585.949219 1211.890625 586.140625 C 1212.292969 586.328125 1212.722656 586.472656 1213.167969 586.570312 C 1213.613281 586.667969 1214.074219 586.714844 1214.546875 586.71875 C 1215.015625 586.71875 1215.492188 586.667969 1215.96875 586.570312 C 1216.449219 586.476562 1216.921875 586.332031 1217.386719 586.140625 C 1217.855469 585.953125 1218.304688 585.71875 1218.742188 585.441406 C 1219.179688 585.167969 1219.59375 584.851562 1219.984375 584.5 C 1220.375 584.148438 1220.734375 583.765625 1221.0625 583.351562 C 1221.390625 582.941406 1221.683594 582.503906 1221.9375 582.042969 C 1222.191406 581.585938 1222.402344 581.109375 1222.574219 580.621094 C 1222.746094 580.136719 1222.871094 579.640625 1222.953125 579.144531 C 1223.03125 578.648438 1223.066406 578.15625 1223.050781 577.667969 C 1223.039062 577.179688 1222.980469 576.707031 1222.871094 576.246094 C 1222.765625 575.785156 1222.617188 575.347656 1222.421875 574.933594 C 1222.226562 574.523438 1221.988281 574.140625 1221.710938 573.785156 C 1221.433594 573.433594 1221.125 573.121094 1220.777344 572.84375 C 1220.429688 572.566406 1220.050781 572.335938 1219.648438 572.144531 C 1219.242188 571.953125 1218.816406 571.808594 1218.367188 571.710938 C 1217.921875 571.613281 1217.460938 571.566406 1216.992188 571.566406 C 1216.519531 571.566406 1216.042969 571.613281 1215.566406 571.710938 C 1215.085938 571.808594 1214.613281 571.949219 1214.148438 572.140625 C 1213.683594 572.332031 1213.230469 572.5625 1212.792969 572.839844 C 1212.355469 573.117188 1211.941406 573.429688 1211.554688 573.78125 C 1211.164062 574.132812 1210.804688 574.515625 1210.472656 574.929688 C 1210.144531 575.34375 1209.855469 575.777344 1209.597656 576.238281 C 1209.34375 576.699219 1209.132812 577.171875 1208.960938 577.660156 C 1208.789062 578.148438 1208.664062 578.640625 1208.585938 579.136719 C 1208.503906 579.636719 1208.472656 580.128906 1208.484375 580.617188 C 1208.496094 581.105469 1208.558594 581.578125 1208.664062 582.035156 C 1208.769531 582.496094 1208.921875 582.933594 1209.117188 583.347656 C 1209.3125 583.761719 1209.546875 584.144531 1209.824219 584.496094 C 1210.101562 584.847656 1210.414062 585.160156 1210.761719 585.4375 " fill-opacity="1" fill-rule="evenodd"/><path fill="#ffffff" d="M 755.625 477.601562 L 752.0625 488.558594 L 757.542969 490.339844 " fill-opacity="1" fill-rule="nonzero"/><path fill="#ffffff" d="M 755.625 477.601562 L 759.183594 488.558594 L 753.707031 490.339844 " fill-opacity="1" fill-rule="nonzero"/><path fill="#ffffff" d="M 766.578125 485.5625 L 755.058594 485.5625 L 755.058594 491.324219 " fill-opacity="1" fill-rule="nonzero"/><path fill="#ffffff" d="M 766.578125 485.5625 L 757.257812 492.335938 L 753.875 487.675781 " fill-opacity="1" fill-rule="nonzero"/><path fill="#ffffff" d="M 744.667969 485.5625 L 753.988281 492.335938 L 757.371094 487.675781 " fill-opacity="1" fill-rule="nonzero"/><path fill="#ffffff" d="M 744.667969 485.5625 L 756.1875 485.5625 L 756.1875 491.324219 " fill-opacity="1" fill-rule="nonzero"/><path fill="#ffffff" d="M 762.394531 498.445312 L 758.835938 487.488281 L 753.355469 489.265625 " fill-opacity="1" fill-rule="nonzero"/><path fill="#ffffff" d="M 762.394531 498.445312 L 753.074219 491.671875 L 756.460938 487.011719 " fill-opacity="1" fill-rule="nonzero"/><path fill="#ffffff" d="M 748.855469 498.445312 L 758.171875 491.671875 L 754.785156 487.011719 " fill-opacity="1" fill-rule="nonzero"/><path fill="#ffffff" d="M 748.855469 498.445312 L 752.414062 487.488281 L 757.890625 489.265625 " fill-opacity="1" fill-rule="nonzero"/><path fill="#ffffff" d="M 779.390625 590.613281 L 775.832031 601.570312 L 781.308594 603.351562 " fill-opacity="1" fill-rule="nonzero"/><path fill="#ffffff" d="M 779.390625 590.613281 L 782.949219 601.570312 L 777.472656 603.351562 " fill-opacity="1" fill-rule="nonzero"/><path fill="#ffffff" d="M 790.34375 598.574219 L 778.824219 598.574219 L 778.824219 604.335938 " fill-opacity="1" fill-rule="nonzero"/><path fill="#ffffff" d="M 790.34375 598.574219 L 781.023438 605.347656 L 777.640625 600.6875 " fill-opacity="1" fill-rule="nonzero"/><path fill="#ffffff" d="M 768.4375 598.574219 L 777.753906 605.347656 L 781.136719 600.6875 " fill-opacity="1" fill-rule="nonzero"/><path fill="#ffffff" d="M 768.4375 598.574219 L 779.953125 598.574219 L 779.953125 604.335938 " fill-opacity="1" fill-rule="nonzero"/><path fill="#ffffff" d="M 786.160156 611.453125 L 782.601562 600.496094 L 777.121094 602.277344 " fill-opacity="1" fill-rule="nonzero"/><path fill="#ffffff" d="M 786.160156 611.453125 L 776.839844 604.683594 L 780.226562 600.023438 " fill-opacity="1" fill-rule="nonzero"/><path fill="#ffffff" d="M 772.621094 611.453125 L 781.9375 604.683594 L 778.550781 600.023438 " fill-opacity="1" fill-rule="nonzero"/><path fill="#ffffff" d="M 772.621094 611.453125 L 776.179688 600.496094 L 781.65625 602.277344 " fill-opacity="1" fill-rule="nonzero"/><path fill="#ffffff" d="M 746.484375 616.671875 L 743.515625 625.800781 L 748.082031 627.285156 " fill-opacity="1" fill-rule="nonzero"/><path fill="#ffffff" d="M 746.484375 616.671875 L 749.449219 625.800781 L 744.882812 627.285156 " fill-opacity="1" fill-rule="nonzero"/><path fill="#ffffff" d="M 755.609375 623.304688 L 746.011719 623.304688 L 746.011719 628.105469 " fill-opacity="1" fill-rule="nonzero"/><path fill="#ffffff" d="M 755.609375 623.304688 L 747.847656 628.949219 L 745.023438 625.066406 " fill-opacity="1" fill-rule="nonzero"/><path fill="#ffffff" d="M 737.355469 623.304688 L 745.121094 628.949219 L 747.941406 625.066406 " fill-opacity="1" fill-rule="nonzero"/><path fill="#ffffff" d="M 737.355469 623.304688 L 746.953125 623.304688 L 746.953125 628.105469 " fill-opacity="1" fill-rule="nonzero"/><path fill="#ffffff" d="M 752.125 634.039062 L 749.160156 624.910156 L 744.59375 626.390625 " fill-opacity="1" fill-rule="nonzero"/><path fill="#ffffff" d="M 752.125 634.039062 L 744.359375 628.398438 L 747.179688 624.511719 " fill-opacity="1" fill-rule="nonzero"/><path fill="#ffffff" d="M 740.839844 634.039062 L 748.605469 628.398438 L 745.785156 624.511719 " fill-opacity="1" fill-rule="nonzero"/><path fill="#ffffff" d="M 740.839844 634.039062 L 743.808594 624.910156 L 748.371094 626.390625 " fill-opacity="1" fill-rule="nonzero"/><path fill="#ffffff" d="M 805.714844 580.191406 L 804.019531 585.40625 L 806.628906 586.253906 " fill-opacity="1" fill-rule="nonzero"/><path fill="#ffffff" d="M 805.714844 580.191406 L 807.410156 585.40625 L 804.800781 586.253906 " fill-opacity="1" fill-rule="nonzero"/><path fill="#ffffff" d="M 810.929688 583.980469 L 805.445312 583.980469 L 805.445312 586.722656 " fill-opacity="1" fill-rule="nonzero"/><path fill="#ffffff" d="M 810.929688 583.980469 L 806.492188 587.207031 L 804.882812 584.988281 " fill-opacity="1" fill-rule="nonzero"/><path fill="#ffffff" d="M 800.5 583.980469 L 804.933594 587.207031 L 806.546875 584.988281 " fill-opacity="1" fill-rule="nonzero"/><path fill="#ffffff" d="M 800.5 583.980469 L 805.984375 583.980469 L 805.984375 586.722656 " fill-opacity="1" fill-rule="nonzero"/><path fill="#ffffff" d="M 808.9375 590.113281 L 807.242188 584.898438 L 804.636719 585.746094 " fill-opacity="1" fill-rule="nonzero"/><path fill="#ffffff" d="M 808.9375 590.113281 L 804.5 586.890625 L 806.113281 584.671875 " fill-opacity="1" fill-rule="nonzero"/><path fill="#ffffff" d="M 802.492188 590.113281 L 806.925781 586.890625 L 805.316406 584.671875 " fill-opacity="1" fill-rule="nonzero"/><path fill="#ffffff" d="M 802.492188 590.113281 L 804.183594 584.898438 L 806.792969 585.746094 " fill-opacity="1" fill-rule="nonzero"/><path fill="#ffffff" d="M 835.332031 619.230469 L 832.363281 628.363281 L 836.929688 629.847656 " fill-opacity="1" fill-rule="nonzero"/><path fill="#ffffff" d="M 835.332031 619.230469 L 838.296875 628.363281 L 833.730469 629.847656 " fill-opacity="1" fill-rule="nonzero"/><path fill="#ffffff" d="M 844.457031 625.867188 L 834.859375 625.867188 L 834.859375 630.667969 " fill-opacity="1" fill-rule="nonzero"/><path fill="#ffffff" d="M 844.457031 625.867188 L 836.695312 631.507812 L 833.871094 627.625 " fill-opacity="1" fill-rule="nonzero"/><path fill="#ffffff" d="M 826.203125 625.867188 L 833.96875 631.507812 L 836.789062 627.625 " fill-opacity="1" fill-rule="nonzero"/><path fill="#ffffff" d="M 826.203125 625.867188 L 835.800781 625.867188 L 835.800781 630.667969 " fill-opacity="1" fill-rule="nonzero"/><path fill="#ffffff" d="M 840.972656 636.601562 L 838.003906 627.46875 L 833.441406 628.953125 " fill-opacity="1" fill-rule="nonzero"/><path fill="#ffffff" d="M 840.972656 636.601562 L 833.207031 630.957031 L 836.027344 627.074219 " fill-opacity="1" fill-rule="nonzero"/><path fill="#ffffff" d="M 829.6875 636.601562 L 837.453125 630.957031 L 834.632812 627.074219 " fill-opacity="1" fill-rule="nonzero"/><path fill="#ffffff" d="M 829.6875 636.601562 L 832.65625 627.46875 L 837.21875 628.953125 " fill-opacity="1" fill-rule="nonzero"/><path fill="#ffffff" d="M 827.285156 647.851562 L 824.914062 655.15625 L 828.566406 656.34375 " fill-opacity="1" fill-rule="nonzero"/><path fill="#ffffff" d="M 827.285156 647.851562 L 829.660156 655.15625 L 826.007812 656.34375 " fill-opacity="1" fill-rule="nonzero"/><path fill="#ffffff" d="M 834.589844 653.15625 L 826.910156 653.15625 L 826.910156 656.996094 " fill-opacity="1" fill-rule="nonzero"/><path fill="#ffffff" d="M 834.589844 653.15625 L 828.378906 657.671875 L 826.121094 654.566406 " fill-opacity="1" fill-rule="nonzero"/><path fill="#ffffff" d="M 819.984375 653.15625 L 826.195312 657.671875 L 828.453125 654.566406 " fill-opacity="1" fill-rule="nonzero"/><path fill="#ffffff" d="M 819.984375 653.15625 L 827.664062 653.15625 L 827.664062 656.996094 " fill-opacity="1" fill-rule="nonzero"/><path fill="#ffffff" d="M 831.800781 661.746094 L 829.425781 654.441406 L 825.777344 655.625 " fill-opacity="1" fill-rule="nonzero"/><path fill="#ffffff" d="M 831.800781 661.746094 L 825.585938 657.230469 L 827.84375 654.125 " fill-opacity="1" fill-rule="nonzero"/><path fill="#ffffff" d="M 822.773438 661.746094 L 828.984375 657.230469 L 826.730469 654.125 " fill-opacity="1" fill-rule="nonzero"/><path fill="#ffffff" d="M 822.773438 661.746094 L 825.144531 654.441406 L 828.796875 655.625 " fill-opacity="1" fill-rule="nonzero"/><path fill="#ffffff" d="M 1058.363281 442.492188 L 1054.804688 453.449219 L 1060.28125 455.230469 " fill-opacity="1" fill-rule="nonzero"/><path fill="#ffffff" d="M 1058.363281 442.492188 L 1061.921875 453.449219 L 1056.445312 455.230469 " fill-opacity="1" fill-rule="nonzero"/><path fill="#ffffff" d="M 1069.316406 450.453125 L 1057.800781 450.453125 L 1057.800781 456.214844 " fill-opacity="1" fill-rule="nonzero"/><path fill="#ffffff" d="M 1069.316406 450.453125 L 1060 457.226562 L 1056.613281 452.566406 " fill-opacity="1" fill-rule="nonzero"/><path fill="#ffffff" d="M 1047.410156 450.453125 L 1056.726562 457.226562 L 1060.113281 452.566406 " fill-opacity="1" fill-rule="nonzero"/><path fill="#ffffff" d="M 1047.410156 450.453125 L 1058.925781 450.453125 L 1058.925781 456.214844 " fill-opacity="1" fill-rule="nonzero"/><path fill="#ffffff" d="M 1065.132812 463.332031 L 1061.574219 452.375 L 1056.097656 454.15625 " fill-opacity="1" fill-rule="nonzero"/><path fill="#ffffff" d="M 1065.132812 463.332031 L 1055.816406 456.5625 L 1059.199219 451.902344 " fill-opacity="1" fill-rule="nonzero"/><path fill="#ffffff" d="M 1051.59375 463.332031 L 1060.910156 456.5625 L 1057.527344 451.902344 " fill-opacity="1" fill-rule="nonzero"/><path fill="#ffffff" d="M 1051.59375 463.332031 L 1055.152344 452.375 L 1060.628906 454.15625 " fill-opacity="1" fill-rule="nonzero"/><path fill="#ffffff" d="M 1163.296875 620.238281 L 1159.738281 631.195312 L 1165.214844 632.976562 " fill-opacity="1" fill-rule="nonzero"/><path fill="#ffffff" d="M 1163.296875 620.238281 L 1166.855469 631.195312 L 1161.378906 632.976562 " fill-opacity="1" fill-rule="nonzero"/><path fill="#ffffff" d="M 1174.25 628.199219 L 1162.734375 628.199219 L 1162.734375 633.957031 " fill-opacity="1" fill-rule="nonzero"/><path fill="#ffffff" d="M 1174.25 628.199219 L 1164.933594 634.96875 L 1161.550781 630.308594 " fill-opacity="1" fill-rule="nonzero"/><path fill="#ffffff" d="M 1152.34375 628.199219 L 1161.664062 634.96875 L 1165.046875 630.308594 " fill-opacity="1" fill-rule="nonzero"/><path fill="#ffffff" d="M 1152.34375 628.199219 L 1163.863281 628.199219 L 1163.863281 633.957031 " fill-opacity="1" fill-rule="nonzero"/><path fill="#ffffff" d="M 1170.066406 641.078125 L 1166.507812 630.121094 L 1161.03125 631.902344 " fill-opacity="1" fill-rule="nonzero"/><path fill="#ffffff" d="M 1170.066406 641.078125 L 1160.75 634.308594 L 1164.136719 629.648438 " fill-opacity="1" fill-rule="nonzero"/><path fill="#ffffff" d="M 1156.527344 641.078125 L 1165.847656 634.308594 L 1162.460938 629.648438 " fill-opacity="1" fill-rule="nonzero"/><path fill="#ffffff" d="M 1156.527344 641.078125 L 1160.085938 630.121094 L 1165.5625 631.902344 " fill-opacity="1" fill-rule="nonzero"/><path fill="#ffffff" d="M 1200.59375 626.636719 L 1198.21875 633.941406 L 1201.871094 635.128906 " fill-opacity="1" fill-rule="nonzero"/><path fill="#ffffff" d="M 1200.59375 626.636719 L 1202.964844 633.941406 L 1199.3125 635.128906 " fill-opacity="1" fill-rule="nonzero"/><path fill="#ffffff" d="M 1207.894531 631.945312 L 1200.214844 631.945312 L 1200.214844 635.785156 " fill-opacity="1" fill-rule="nonzero"/><path fill="#ffffff" d="M 1207.894531 631.945312 L 1201.683594 636.460938 L 1199.425781 633.351562 " fill-opacity="1" fill-rule="nonzero"/><path fill="#ffffff" d="M 1193.289062 631.945312 L 1199.5 636.460938 L 1201.757812 633.351562 " fill-opacity="1" fill-rule="nonzero"/><path fill="#ffffff" d="M 1193.289062 631.945312 L 1200.96875 631.945312 L 1200.96875 635.785156 " fill-opacity="1" fill-rule="nonzero"/><path fill="#ffffff" d="M 1205.105469 640.53125 L 1202.734375 633.226562 L 1199.082031 634.414062 " fill-opacity="1" fill-rule="nonzero"/><path fill="#ffffff" d="M 1205.105469 640.53125 L 1198.894531 636.019531 L 1201.148438 632.910156 " fill-opacity="1" fill-rule="nonzero"/><path fill="#ffffff" d="M 1196.078125 640.53125 L 1202.289062 636.019531 L 1200.035156 632.910156 " fill-opacity="1" fill-rule="nonzero"/><path fill="#ffffff" d="M 1196.078125 640.53125 L 1198.453125 633.226562 L 1202.101562 634.414062 " fill-opacity="1" fill-rule="nonzero"/><path fill="#ffffff" d="M 1174.265625 645.929688 L 1171.300781 655.0625 L 1175.863281 656.542969 " fill-opacity="1" fill-rule="nonzero"/><path fill="#ffffff" d="M 1174.265625 645.929688 L 1177.234375 655.0625 L 1172.667969 656.542969 " fill-opacity="1" fill-rule="nonzero"/><path fill="#ffffff" d="M 1183.394531 652.5625 L 1173.796875 652.5625 L 1173.796875 657.363281 " fill-opacity="1" fill-rule="nonzero"/><path fill="#ffffff" d="M 1183.394531 652.5625 L 1175.628906 658.207031 L 1172.808594 654.324219 " fill-opacity="1" fill-rule="nonzero"/><path fill="#ffffff" d="M 1165.140625 652.5625 L 1172.902344 658.207031 L 1175.722656 654.324219 " fill-opacity="1" fill-rule="nonzero"/><path fill="#ffffff" d="M 1165.140625 652.5625 L 1174.738281 652.5625 L 1174.738281 657.363281 " fill-opacity="1" fill-rule="nonzero"/><path fill="#ffffff" d="M 1179.910156 663.296875 L 1176.941406 654.167969 L 1172.378906 655.652344 " fill-opacity="1" fill-rule="nonzero"/><path fill="#ffffff" d="M 1179.910156 663.296875 L 1172.144531 657.65625 L 1174.964844 653.773438 " fill-opacity="1" fill-rule="nonzero"/><path fill="#ffffff" d="M 1168.625 663.296875 L 1176.390625 657.65625 L 1173.570312 653.773438 " fill-opacity="1" fill-rule="nonzero"/><path fill="#ffffff" d="M 1168.625 663.296875 L 1171.589844 654.167969 L 1176.15625 655.652344 " fill-opacity="1" fill-rule="nonzero"/><path fill="#ffffff" d="M 1109.550781 702.253906 L 1106.585938 711.382812 L 1111.148438 712.867188 " fill-opacity="1" fill-rule="nonzero"/><path fill="#ffffff" d="M 1109.550781 702.253906 L 1112.515625 711.382812 L 1107.953125 712.867188 " fill-opacity="1" fill-rule="nonzero"/><path fill="#ffffff" d="M 1118.679688 708.886719 L 1109.082031 708.886719 L 1109.082031 713.6875 " fill-opacity="1" fill-rule="nonzero"/><path fill="#ffffff" d="M 1118.679688 708.886719 L 1110.914062 714.53125 L 1108.09375 710.648438 " fill-opacity="1" fill-rule="nonzero"/><path fill="#ffffff" d="M 1100.421875 708.886719 L 1108.1875 714.53125 L 1111.007812 710.648438 " fill-opacity="1" fill-rule="nonzero"/><path fill="#ffffff" d="M 1100.421875 708.886719 L 1110.019531 708.886719 L 1110.019531 713.6875 " fill-opacity="1" fill-rule="nonzero"/><path fill="#ffffff" d="M 1115.191406 719.621094 L 1112.226562 710.488281 L 1107.664062 711.972656 " fill-opacity="1" fill-rule="nonzero"/><path fill="#ffffff" d="M 1115.191406 719.621094 L 1107.425781 713.976562 L 1110.25 710.09375 " fill-opacity="1" fill-rule="nonzero"/><path fill="#ffffff" d="M 1103.910156 719.621094 L 1111.675781 713.976562 L 1108.851562 710.09375 " fill-opacity="1" fill-rule="nonzero"/><path fill="#ffffff" d="M 1103.910156 719.621094 L 1106.875 710.488281 L 1111.4375 711.972656 " fill-opacity="1" fill-rule="nonzero"/><path fill="#ffffff" d="M 1109.183594 731.238281 L 1106.8125 738.542969 L 1110.464844 739.730469 " fill-opacity="1" fill-rule="nonzero"/><path fill="#ffffff" d="M 1109.183594 731.238281 L 1111.558594 738.542969 L 1107.90625 739.730469 " fill-opacity="1" fill-rule="nonzero"/><path fill="#ffffff" d="M 1116.488281 736.542969 L 1108.808594 736.542969 L 1108.808594 740.382812 " fill-opacity="1" fill-rule="nonzero"/><path fill="#ffffff" d="M 1116.488281 736.542969 L 1110.277344 741.058594 L 1108.019531 737.953125 " fill-opacity="1" fill-rule="nonzero"/><path fill="#ffffff" d="M 1101.882812 736.542969 L 1108.09375 741.058594 L 1110.351562 737.953125 " fill-opacity="1" fill-rule="nonzero"/><path fill="#ffffff" d="M 1101.882812 736.542969 L 1109.5625 736.542969 L 1109.5625 740.382812 " fill-opacity="1" fill-rule="nonzero"/><path fill="#ffffff" d="M 1113.699219 745.132812 L 1111.324219 737.828125 L 1107.675781 739.011719 " fill-opacity="1" fill-rule="nonzero"/><path fill="#ffffff" d="M 1113.699219 745.132812 L 1107.488281 740.617188 L 1109.742188 737.511719 " fill-opacity="1" fill-rule="nonzero"/><path fill="#ffffff" d="M 1104.671875 745.132812 L 1110.882812 740.617188 L 1108.628906 737.511719 " fill-opacity="1" fill-rule="nonzero"/><path fill="#ffffff" d="M 1104.671875 745.132812 L 1107.046875 737.828125 L 1110.695312 739.011719 " fill-opacity="1" fill-rule="nonzero"/><path fill="#ffffff" d="M 1136.242188 682.960938 L 1133.867188 690.265625 L 1137.519531 691.453125 " fill-opacity="1" fill-rule="nonzero"/><path fill="#ffffff" d="M 1136.242188 682.960938 L 1138.613281 690.265625 L 1134.964844 691.453125 " fill-opacity="1" fill-rule="nonzero"/><path fill="#ffffff" d="M 1143.542969 688.269531 L 1135.867188 688.269531 L 1135.867188 692.109375 " fill-opacity="1" fill-rule="nonzero"/><path fill="#ffffff" d="M 1143.542969 688.269531 L 1137.332031 692.78125 L 1135.074219 689.675781 " fill-opacity="1" fill-rule="nonzero"/><path fill="#ffffff" d="M 1128.9375 688.269531 L 1135.152344 692.78125 L 1137.40625 689.675781 " fill-opacity="1" fill-rule="nonzero"/><path fill="#ffffff" d="M 1128.9375 688.269531 L 1136.617188 688.269531 L 1136.617188 692.109375 " fill-opacity="1" fill-rule="nonzero"/><path fill="#ffffff" d="M 1140.753906 696.855469 L 1138.382812 689.550781 L 1134.730469 690.738281 " fill-opacity="1" fill-rule="nonzero"/><path fill="#ffffff" d="M 1140.753906 696.855469 L 1134.542969 692.339844 L 1136.800781 689.234375 " fill-opacity="1" fill-rule="nonzero"/><path fill="#ffffff" d="M 1131.730469 696.855469 L 1137.941406 692.339844 L 1135.683594 689.234375 " fill-opacity="1" fill-rule="nonzero"/><path fill="#ffffff" d="M 1131.730469 696.855469 L 1134.101562 689.550781 L 1137.753906 690.738281 " fill-opacity="1" fill-rule="nonzero"/><path fill="#ffffff" d="M 1157.8125 667.507812 L 1154.847656 676.640625 L 1159.410156 678.121094 " fill-opacity="1" fill-rule="nonzero"/><path fill="#ffffff" d="M 1157.8125 667.507812 L 1160.78125 676.640625 L 1156.214844 678.121094 " fill-opacity="1" fill-rule="nonzero"/><path fill="#ffffff" d="M 1166.941406 674.140625 L 1157.34375 674.140625 L 1157.34375 678.941406 " fill-opacity="1" fill-rule="nonzero"/><path fill="#ffffff" d="M 1166.941406 674.140625 L 1159.175781 679.785156 L 1156.355469 675.902344 " fill-opacity="1" fill-rule="nonzero"/><path fill="#ffffff" d="M 1148.6875 674.140625 L 1156.449219 679.785156 L 1159.269531 675.902344 " fill-opacity="1" fill-rule="nonzero"/><path fill="#ffffff" d="M 1148.6875 674.140625 L 1158.285156 674.140625 L 1158.285156 678.941406 " fill-opacity="1" fill-rule="nonzero"/><path fill="#ffffff" d="M 1163.457031 684.875 L 1160.488281 675.746094 L 1155.925781 677.230469 " fill-opacity="1" fill-rule="nonzero"/><path fill="#ffffff" d="M 1163.457031 684.875 L 1155.691406 679.234375 L 1158.511719 675.351562 " fill-opacity="1" fill-rule="nonzero"/><path fill="#ffffff" d="M 1152.171875 684.875 L 1159.9375 679.234375 L 1157.117188 675.351562 " fill-opacity="1" fill-rule="nonzero"/><path fill="#ffffff" d="M 1152.171875 684.875 L 1155.136719 675.746094 L 1159.703125 677.230469 " fill-opacity="1" fill-rule="nonzero"/><path fill="#ffffff" d="M 1108.453125 677.839844 L 1106.082031 685.144531 L 1109.734375 686.332031 " fill-opacity="1" fill-rule="nonzero"/><path fill="#ffffff" d="M 1108.453125 677.839844 L 1110.828125 685.144531 L 1107.175781 686.332031 " fill-opacity="1" fill-rule="nonzero"/><path fill="#ffffff" d="M 1115.757812 683.148438 L 1108.078125 683.148438 L 1108.078125 686.988281 " fill-opacity="1" fill-rule="nonzero"/><path fill="#ffffff" d="M 1115.757812 683.148438 L 1109.542969 687.660156 L 1107.289062 684.554688 " fill-opacity="1" fill-rule="nonzero"/><path fill="#ffffff" d="M 1101.152344 683.148438 L 1107.363281 687.660156 L 1109.621094 684.554688 " fill-opacity="1" fill-rule="nonzero"/><path fill="#ffffff" d="M 1101.152344 683.148438 L 1108.828125 683.148438 L 1108.828125 686.988281 " fill-opacity="1" fill-rule="nonzero"/><path fill="#ffffff" d="M 1112.96875 691.734375 L 1110.59375 684.429688 L 1106.941406 685.617188 " fill-opacity="1" fill-rule="nonzero"/><path fill="#ffffff" d="M 1112.96875 691.734375 L 1106.753906 687.21875 L 1109.011719 684.113281 " fill-opacity="1" fill-rule="nonzero"/><path fill="#ffffff" d="M 1103.941406 691.734375 L 1110.152344 687.21875 L 1107.894531 684.113281 " fill-opacity="1" fill-rule="nonzero"/><path fill="#ffffff" d="M 1103.941406 691.734375 L 1106.3125 684.429688 L 1109.964844 685.617188 " fill-opacity="1" fill-rule="nonzero"/><path fill="#ffffff" d="M 872.625 538.769531 L 869.660156 547.902344 L 874.222656 549.386719 " fill-opacity="1" fill-rule="nonzero"/><path fill="#ffffff" d="M 872.625 538.769531 L 875.589844 547.902344 L 871.027344 549.386719 " fill-opacity="1" fill-rule="nonzero"/><path fill="#ffffff" d="M 881.753906 545.40625 L 872.15625 545.40625 L 872.15625 550.207031 " fill-opacity="1" fill-rule="nonzero"/><path fill="#ffffff" d="M 881.753906 545.40625 L 873.988281 551.046875 L 871.167969 547.164062 " fill-opacity="1" fill-rule="nonzero"/><path fill="#ffffff" d="M 863.496094 545.40625 L 871.261719 551.046875 L 874.082031 547.164062 " fill-opacity="1" fill-rule="nonzero"/><path fill="#ffffff" d="M 863.496094 545.40625 L 873.09375 545.40625 L 873.09375 550.207031 " fill-opacity="1" fill-rule="nonzero"/><path fill="#ffffff" d="M 878.265625 556.140625 L 875.300781 547.007812 L 870.734375 548.492188 " fill-opacity="1" fill-rule="nonzero"/><path fill="#ffffff" d="M 878.265625 556.140625 L 870.5 550.496094 L 873.320312 546.613281 " fill-opacity="1" fill-rule="nonzero"/><path fill="#ffffff" d="M 866.984375 556.140625 L 874.746094 550.496094 L 871.925781 546.613281 " fill-opacity="1" fill-rule="nonzero"/><path fill="#ffffff" d="M 866.984375 556.140625 L 869.949219 547.007812 L 874.511719 548.492188 " fill-opacity="1" fill-rule="nonzero"/><path fill="#ffffff" d="M 1048.125 516.1875 L 1045.753906 523.492188 L 1049.402344 524.679688 " fill-opacity="1" fill-rule="nonzero"/><path fill="#ffffff" d="M 1048.125 516.1875 L 1050.5 523.492188 L 1046.847656 524.679688 " fill-opacity="1" fill-rule="nonzero"/><path fill="#ffffff" d="M 1055.429688 521.496094 L 1047.75 521.496094 L 1047.75 525.335938 " fill-opacity="1" fill-rule="nonzero"/><path fill="#ffffff" d="M 1055.429688 521.496094 L 1049.214844 526.007812 L 1046.960938 522.902344 " fill-opacity="1" fill-rule="nonzero"/><path fill="#ffffff" d="M 1040.824219 521.496094 L 1047.035156 526.007812 L 1049.292969 522.902344 " fill-opacity="1" fill-rule="nonzero"/><path fill="#ffffff" d="M 1040.824219 521.496094 L 1048.5 521.496094 L 1048.5 525.335938 " fill-opacity="1" fill-rule="nonzero"/><path fill="#ffffff" d="M 1052.636719 530.082031 L 1050.265625 522.777344 L 1046.613281 523.964844 " fill-opacity="1" fill-rule="nonzero"/><path fill="#ffffff" d="M 1052.636719 530.082031 L 1046.425781 525.566406 L 1048.683594 522.460938 " fill-opacity="1" fill-rule="nonzero"/><path fill="#ffffff" d="M 1043.613281 530.082031 L 1049.824219 525.566406 L 1047.566406 522.460938 " fill-opacity="1" fill-rule="nonzero"/><path fill="#ffffff" d="M 1043.613281 530.082031 L 1045.984375 522.777344 L 1049.636719 523.964844 " fill-opacity="1" fill-rule="nonzero"/><path fill="#ffffff" d="M 975 646.570312 L 971.441406 657.527344 L 976.917969 659.308594 " fill-opacity="1" fill-rule="nonzero"/><path fill="#ffffff" d="M 975 646.570312 L 978.558594 657.527344 L 973.082031 659.308594 " fill-opacity="1" fill-rule="nonzero"/><path fill="#ffffff" d="M 985.953125 654.53125 L 974.4375 654.53125 L 974.4375 660.292969 " fill-opacity="1" fill-rule="nonzero"/><path fill="#ffffff" d="M 985.953125 654.53125 L 976.636719 661.304688 L 973.25 656.644531 " fill-opacity="1" fill-rule="nonzero"/><path fill="#ffffff" d="M 964.046875 654.53125 L 973.363281 661.304688 L 976.75 656.644531 " fill-opacity="1" fill-rule="nonzero"/><path fill="#ffffff" d="M 964.046875 654.53125 L 975.5625 654.53125 L 975.5625 660.292969 " fill-opacity="1" fill-rule="nonzero"/><path fill="#ffffff" d="M 981.769531 667.410156 L 978.210938 656.453125 L 972.734375 658.234375 " fill-opacity="1" fill-rule="nonzero"/><path fill="#ffffff" d="M 981.769531 667.410156 L 972.453125 660.640625 L 975.835938 655.980469 " fill-opacity="1" fill-rule="nonzero"/><path fill="#ffffff" d="M 968.230469 667.410156 L 977.546875 660.640625 L 974.164062 655.980469 " fill-opacity="1" fill-rule="nonzero"/><path fill="#ffffff" d="M 968.230469 667.410156 L 971.789062 656.453125 L 977.265625 658.234375 " fill-opacity="1" fill-rule="nonzero"/><path fill="#ffffff" d="M 1006.078125 595.09375 L 1003.113281 604.226562 L 1007.675781 605.707031 " fill-opacity="1" fill-rule="nonzero"/><path fill="#ffffff" d="M 1006.078125 595.09375 L 1009.042969 604.226562 L 1004.480469 605.707031 " fill-opacity="1" fill-rule="nonzero"/><path fill="#ffffff" d="M 1015.207031 601.726562 L 1005.609375 601.726562 L 1005.609375 606.527344 " fill-opacity="1" fill-rule="nonzero"/><path fill="#ffffff" d="M 1015.207031 601.726562 L 1007.441406 607.371094 L 1004.621094 603.488281 " fill-opacity="1" fill-rule="nonzero"/><path fill="#ffffff" d="M 996.949219 601.726562 L 1004.714844 607.371094 L 1007.535156 603.488281 " fill-opacity="1" fill-rule="nonzero"/><path fill="#ffffff" d="M 996.949219 601.726562 L 1006.546875 601.726562 L 1006.546875 606.527344 " fill-opacity="1" fill-rule="nonzero"/><path fill="#ffffff" d="M 1011.71875 612.460938 L 1008.753906 603.332031 L 1004.191406 604.8125 " fill-opacity="1" fill-rule="nonzero"/><path fill="#ffffff" d="M 1011.71875 612.460938 L 1003.953125 606.820312 L 1006.777344 602.933594 " fill-opacity="1" fill-rule="nonzero"/><path fill="#ffffff" d="M 1000.4375 612.460938 L 1008.203125 606.820312 L 1005.378906 602.933594 " fill-opacity="1" fill-rule="nonzero"/><path fill="#ffffff" d="M 1000.4375 612.460938 L 1003.402344 603.332031 L 1007.96875 604.8125 " fill-opacity="1" fill-rule="nonzero"/><path fill="#ffffff" d="M 975 570.957031 L 972.035156 580.085938 L 976.597656 581.570312 " fill-opacity="1" fill-rule="nonzero"/><path fill="#ffffff" d="M 975 570.957031 L 977.964844 580.085938 L 973.402344 581.570312 " fill-opacity="1" fill-rule="nonzero"/><path fill="#ffffff" d="M 984.128906 577.589844 L 974.53125 577.589844 L 974.53125 582.390625 " fill-opacity="1" fill-rule="nonzero"/><path fill="#ffffff" d="M 984.128906 577.589844 L 976.363281 583.234375 L 973.542969 579.347656 " fill-opacity="1" fill-rule="nonzero"/><path fill="#ffffff" d="M 965.871094 577.589844 L 973.636719 583.234375 L 976.457031 579.347656 " fill-opacity="1" fill-rule="nonzero"/><path fill="#ffffff" d="M 965.871094 577.589844 L 975.46875 577.589844 L 975.46875 582.390625 " fill-opacity="1" fill-rule="nonzero"/><path fill="#ffffff" d="M 980.640625 588.324219 L 977.675781 579.191406 L 973.113281 580.675781 " fill-opacity="1" fill-rule="nonzero"/><path fill="#ffffff" d="M 980.640625 588.324219 L 972.875 582.679688 L 975.699219 578.796875 " fill-opacity="1" fill-rule="nonzero"/><path fill="#ffffff" d="M 969.359375 588.324219 L 977.125 582.679688 L 974.300781 578.796875 " fill-opacity="1" fill-rule="nonzero"/><path fill="#ffffff" d="M 969.359375 588.324219 L 972.324219 579.191406 L 976.886719 580.675781 " fill-opacity="1" fill-rule="nonzero"/><path fill="#ffffff" d="M 947.945312 597.015625 L 945.570312 604.320312 L 949.222656 605.503906 " fill-opacity="1" fill-rule="nonzero"/><path fill="#ffffff" d="M 947.945312 597.015625 L 950.316406 604.320312 L 946.664062 605.503906 " fill-opacity="1" fill-rule="nonzero"/><path fill="#ffffff" d="M 955.246094 602.320312 L 947.566406 602.320312 L 947.566406 606.160156 " fill-opacity="1" fill-rule="nonzero"/><path fill="#ffffff" d="M 955.246094 602.320312 L 949.035156 606.835938 L 946.777344 603.730469 " fill-opacity="1" fill-rule="nonzero"/><path fill="#ffffff" d="M 940.640625 602.320312 L 946.851562 606.835938 L 949.109375 603.730469 " fill-opacity="1" fill-rule="nonzero"/><path fill="#ffffff" d="M 940.640625 602.320312 L 948.320312 602.320312 L 948.320312 606.160156 " fill-opacity="1" fill-rule="nonzero"/><path fill="#ffffff" d="M 952.457031 610.90625 L 950.082031 603.605469 L 946.433594 604.789062 " fill-opacity="1" fill-rule="nonzero"/><path fill="#ffffff" d="M 952.457031 610.90625 L 946.246094 606.394531 L 948.5 603.285156 " fill-opacity="1" fill-rule="nonzero"/><path fill="#ffffff" d="M 943.429688 610.90625 L 949.640625 606.394531 L 947.386719 603.285156 " fill-opacity="1" fill-rule="nonzero"/><path fill="#ffffff" d="M 943.429688 610.90625 L 945.804688 603.605469 L 949.453125 604.789062 " fill-opacity="1" fill-rule="nonzero"/><path fill="#ffffff" d="M 961.472656 617.859375 L 959.777344 623.078125 L 962.386719 623.925781 " fill-opacity="1" fill-rule="nonzero"/><path fill="#ffffff" d="M 961.472656 617.859375 L 963.167969 623.078125 L 960.558594 623.925781 " fill-opacity="1" fill-rule="nonzero"/><path fill="#ffffff" d="M 966.6875 621.652344 L 961.203125 621.652344 L 961.203125 624.394531 " fill-opacity="1" fill-rule="nonzero"/><path fill="#ffffff" d="M 966.6875 621.652344 L 962.25 624.875 L 960.640625 622.65625 " fill-opacity="1" fill-rule="nonzero"/><path fill="#ffffff" d="M 956.253906 621.652344 L 960.691406 624.875 L 962.304688 622.65625 " fill-opacity="1" fill-rule="nonzero"/><path fill="#ffffff" d="M 956.253906 621.652344 L 961.738281 621.652344 L 961.738281 624.394531 " fill-opacity="1" fill-rule="nonzero"/><path fill="#ffffff" d="M 964.695312 627.785156 L 963 622.566406 L 960.394531 623.414062 " fill-opacity="1" fill-rule="nonzero"/><path fill="#ffffff" d="M 964.695312 627.785156 L 960.257812 624.558594 L 961.871094 622.339844 " fill-opacity="1" fill-rule="nonzero"/><path fill="#ffffff" d="M 958.25 627.785156 L 962.683594 624.558594 L 961.074219 622.339844 " fill-opacity="1" fill-rule="nonzero"/><path fill="#ffffff" d="M 958.25 627.785156 L 959.941406 622.566406 L 962.550781 623.414062 " fill-opacity="1" fill-rule="nonzero"/><path fill="#ffffff" d="M 1055.4375 708.835938 L 1052.472656 717.96875 L 1057.035156 719.449219 " fill-opacity="1" fill-rule="nonzero"/><path fill="#ffffff" d="M 1055.4375 708.835938 L 1058.402344 717.96875 L 1053.839844 719.449219 " fill-opacity="1" fill-rule="nonzero"/><path fill="#ffffff" d="M 1064.566406 715.46875 L 1054.96875 715.46875 L 1054.96875 720.269531 " fill-opacity="1" fill-rule="nonzero"/><path fill="#ffffff" d="M 1064.566406 715.46875 L 1056.800781 721.113281 L 1053.980469 717.230469 " fill-opacity="1" fill-rule="nonzero"/><path fill="#ffffff" d="M 1046.308594 715.46875 L 1054.074219 721.113281 L 1056.894531 717.230469 " fill-opacity="1" fill-rule="nonzero"/><path fill="#ffffff" d="M 1046.308594 715.46875 L 1055.90625 715.46875 L 1055.90625 720.269531 " fill-opacity="1" fill-rule="nonzero"/><path fill="#ffffff" d="M 1061.078125 726.203125 L 1058.113281 717.074219 L 1053.550781 718.554688 " fill-opacity="1" fill-rule="nonzero"/><path fill="#ffffff" d="M 1061.078125 726.203125 L 1053.316406 720.5625 L 1056.136719 716.675781 " fill-opacity="1" fill-rule="nonzero"/><path fill="#ffffff" d="M 1049.796875 726.203125 L 1057.5625 720.5625 L 1054.742188 716.675781 " fill-opacity="1" fill-rule="nonzero"/><path fill="#ffffff" d="M 1049.796875 726.203125 L 1052.761719 717.074219 L 1057.328125 718.554688 " fill-opacity="1" fill-rule="nonzero"/><path fill="#ffffff" d="M 1078.472656 686.984375 L 1076.101562 694.289062 L 1079.75 695.476562 " fill-opacity="1" fill-rule="nonzero"/><path fill="#ffffff" d="M 1078.472656 686.984375 L 1080.84375 694.289062 L 1077.195312 695.476562 " fill-opacity="1" fill-rule="nonzero"/><path fill="#ffffff" d="M 1085.773438 692.289062 L 1078.097656 692.289062 L 1078.097656 696.132812 " fill-opacity="1" fill-rule="nonzero"/><path fill="#ffffff" d="M 1085.773438 692.289062 L 1079.5625 696.804688 L 1077.304688 693.699219 " fill-opacity="1" fill-rule="nonzero"/><path fill="#ffffff" d="M 1071.171875 692.289062 L 1077.382812 696.804688 L 1079.636719 693.699219 " fill-opacity="1" fill-rule="nonzero"/><path fill="#ffffff" d="M 1071.171875 692.289062 L 1078.847656 692.289062 L 1078.847656 696.132812 " fill-opacity="1" fill-rule="nonzero"/><path fill="#ffffff" d="M 1082.984375 700.878906 L 1080.613281 693.574219 L 1076.960938 694.761719 " fill-opacity="1" fill-rule="nonzero"/><path fill="#ffffff" d="M 1082.984375 700.878906 L 1076.773438 696.363281 L 1079.03125 693.257812 " fill-opacity="1" fill-rule="nonzero"/><path fill="#ffffff" d="M 1073.960938 700.878906 L 1080.171875 696.363281 L 1077.914062 693.257812 " fill-opacity="1" fill-rule="nonzero"/><path fill="#ffffff" d="M 1073.960938 700.878906 L 1076.332031 693.574219 L 1079.984375 694.761719 " fill-opacity="1" fill-rule="nonzero"/><path fill="#ffffff" d="M 1034.230469 680.402344 L 1031.859375 687.707031 L 1035.511719 688.890625 " fill-opacity="1" fill-rule="nonzero"/><path fill="#ffffff" d="M 1034.230469 680.402344 L 1036.605469 687.707031 L 1032.953125 688.890625 " fill-opacity="1" fill-rule="nonzero"/><path fill="#ffffff" d="M 1041.535156 685.707031 L 1033.855469 685.707031 L 1033.855469 689.546875 " fill-opacity="1" fill-rule="nonzero"/><path fill="#ffffff" d="M 1041.535156 685.707031 L 1035.320312 690.222656 L 1033.066406 687.117188 " fill-opacity="1" fill-rule="nonzero"/><path fill="#ffffff" d="M 1026.929688 685.707031 L 1033.140625 690.222656 L 1035.398438 687.117188 " fill-opacity="1" fill-rule="nonzero"/><path fill="#ffffff" d="M 1026.929688 685.707031 L 1034.609375 685.707031 L 1034.609375 689.546875 " fill-opacity="1" fill-rule="nonzero"/><path fill="#ffffff" d="M 1038.746094 694.292969 L 1036.371094 686.992188 L 1032.722656 688.175781 " fill-opacity="1" fill-rule="nonzero"/><path fill="#ffffff" d="M 1038.746094 694.292969 L 1032.53125 689.78125 L 1034.789062 686.671875 " fill-opacity="1" fill-rule="nonzero"/><path fill="#ffffff" d="M 1029.71875 694.292969 L 1035.929688 689.78125 L 1033.671875 686.671875 " fill-opacity="1" fill-rule="nonzero"/><path fill="#ffffff" d="M 1029.71875 694.292969 L 1032.089844 686.992188 L 1035.742188 688.175781 " fill-opacity="1" fill-rule="nonzero"/><path fill="#ffffff" d="M 867.140625 668.515625 L 863.582031 679.472656 L 869.058594 681.25 " fill-opacity="1" fill-rule="nonzero"/><path fill="#ffffff" d="M 867.140625 668.515625 L 870.699219 679.472656 L 865.222656 681.25 " fill-opacity="1" fill-rule="nonzero"/><path fill="#ffffff" d="M 878.09375 676.476562 L 866.574219 676.476562 L 866.574219 682.234375 " fill-opacity="1" fill-rule="nonzero"/><path fill="#ffffff" d="M 878.09375 676.476562 L 868.777344 683.246094 L 865.390625 678.585938 " fill-opacity="1" fill-rule="nonzero"/><path fill="#ffffff" d="M 856.1875 676.476562 L 865.503906 683.246094 L 868.890625 678.585938 " fill-opacity="1" fill-rule="nonzero"/><path fill="#ffffff" d="M 856.1875 676.476562 L 867.703125 676.476562 L 867.703125 682.234375 " fill-opacity="1" fill-rule="nonzero"/><path fill="#ffffff" d="M 873.910156 689.355469 L 870.351562 678.398438 L 864.875 680.179688 " fill-opacity="1" fill-rule="nonzero"/><path fill="#ffffff" d="M 873.910156 689.355469 L 864.589844 682.582031 L 867.976562 677.921875 " fill-opacity="1" fill-rule="nonzero"/><path fill="#ffffff" d="M 860.371094 689.355469 L 869.6875 682.582031 L 866.304688 677.921875 " fill-opacity="1" fill-rule="nonzero"/><path fill="#ffffff" d="M 860.371094 689.355469 L 863.929688 678.398438 L 869.40625 680.179688 " fill-opacity="1" fill-rule="nonzero"/><path fill="#ffffff" d="M 975 743.855469 L 973.8125 747.507812 L 975.640625 748.101562 " fill-opacity="1" fill-rule="nonzero"/><path fill="#ffffff" d="M 975 743.855469 L 976.1875 747.507812 L 974.359375 748.101562 " fill-opacity="1" fill-rule="nonzero"/><path fill="#ffffff" d="M 978.652344 746.507812 L 974.8125 746.507812 L 974.8125 748.429688 " fill-opacity="1" fill-rule="nonzero"/><path fill="#ffffff" d="M 978.652344 746.507812 L 975.546875 748.765625 L 974.417969 747.210938 " fill-opacity="1" fill-rule="nonzero"/><path fill="#ffffff" d="M 971.347656 746.507812 L 974.453125 748.765625 L 975.582031 747.210938 " fill-opacity="1" fill-rule="nonzero"/><path fill="#ffffff" d="M 971.347656 746.507812 L 975.1875 746.507812 L 975.1875 748.429688 " fill-opacity="1" fill-rule="nonzero"/><path fill="#ffffff" d="M 977.257812 750.800781 L 976.070312 747.148438 L 974.246094 747.742188 " fill-opacity="1" fill-rule="nonzero"/><path fill="#ffffff" d="M 977.257812 750.800781 L 974.152344 748.546875 L 975.277344 746.992188 " fill-opacity="1" fill-rule="nonzero"/><path fill="#ffffff" d="M 972.742188 750.800781 L 975.847656 748.546875 L 974.722656 746.992188 " fill-opacity="1" fill-rule="nonzero"/><path fill="#ffffff" d="M 972.742188 750.800781 L 973.929688 747.148438 L 975.753906 747.742188 " fill-opacity="1" fill-rule="nonzero"/></svg>