<?xml version="1.0" encoding="UTF-8" standalone="no"?>
<svg
   xmlns="http://www.w3.org/2000/svg"
   version="1.1"
   id="svg2"
   viewBox="0 0 500.00001 60.190987"
   height="16.987234mm"
   width="141.11111mm">
  <defs
     id="defs4">
    <clipPath
       clipPathUnits="userSpaceOnUse"
       id="clipPath4152">
      <path
         d="m 346.276,782.143 c 0,-33.844 27.436,-61.281 61.281,-61.281 l 0,0 c 33.845,0 61.282,27.437 61.282,61.281 l 0,0 c 0,33.846 -27.437,61.282 -61.282,61.282 l 0,0 c -33.845,0 -61.281,-27.436 -61.281,-61.282"
         id="path4154" />
    </clipPath>
    <clipPath
       clipPathUnits="userSpaceOnUse"
       id="clipPath4164">
      <path
         d="m 483.921,782.143 c 0,-33.844 27.436,-61.281 61.282,-61.281 l 0,0 c 33.844,0 61.281,27.437 61.281,61.281 l 0,0 c 0,33.846 -27.437,61.282 -61.281,61.282 l 0,0 c -33.846,0 -61.282,-27.436 -61.282,-61.282"
         id="path4166" />
    </clipPath>
    <clipPath
       clipPathUnits="userSpaceOnUse"
       id="clipPath4240">
      <path
         d="m 71.575,242.569 c 0,-33.845 27.437,-61.282 61.281,-61.282 l 0,0 c 33.845,0 61.282,27.437 61.282,61.282 l 0,0 c 0,33.844 -27.437,61.281 -61.282,61.281 l 0,0 c -33.844,0 -61.281,-27.437 -61.281,-61.281"
         id="path4242" />
    </clipPath>
    <clipPath
       clipPathUnits="userSpaceOnUse"
       id="clipPath4252">
      <path
         d="m 209.338,242.852 c 0,-33.844 27.438,-61.282 61.282,-61.282 l 0,0 c 33.845,0 61.282,27.438 61.282,61.282 l 0,0 c 0,33.845 -27.437,61.281 -61.282,61.281 l 0,0 c -33.844,0 -61.282,-27.436 -61.282,-61.281"
         id="path4254" />
    </clipPath>
    <clipPath
       clipPathUnits="userSpaceOnUse"
       id="clipPath4264">
      <path
         d="m 346.984,242.852 c 0,-33.844 27.437,-61.282 61.282,-61.282 l 0,0 c 33.845,0 61.281,27.438 61.281,61.282 l 0,0 c 0,33.845 -27.436,61.281 -61.281,61.281 l 0,0 c -33.845,0 -61.282,-27.436 -61.282,-61.281"
         id="path4266" />
    </clipPath>
    <clipPath
       clipPathUnits="userSpaceOnUse"
       id="clipPath4276">
      <path
         d="m 484.63,242.852 c 0,-33.844 27.437,-61.282 61.281,-61.282 l 0,0 c 33.846,0 61.282,27.438 61.282,61.282 l 0,0 c 0,33.845 -27.436,61.281 -61.282,61.281 l 0,0 c -33.844,0 -61.281,-27.436 -61.281,-61.281"
         id="path4278" />
    </clipPath>
    <clipPath
       clipPathUnits="userSpaceOnUse"
       id="clipPath4350">
      <path
         d="m 484.63,455.575 c 0,-33.845 27.437,-61.281 61.281,-61.281 l 0,0 c 33.846,0 61.282,27.436 61.282,61.281 l 0,0 c 0,33.845 -27.436,61.282 -61.282,61.282 l 0,0 c -33.844,0 -61.281,-27.437 -61.281,-61.282"
         id="path4352" />
    </clipPath>
    <clipPath
       clipPathUnits="userSpaceOnUse"
       id="clipPath4362">
      <path
         d="m 29.173,29.173 623.622,0 0,870.236 -623.622,0 0,-870.236 z"
         id="path4364" />
    </clipPath>
    <clipPath
       clipPathUnits="userSpaceOnUse"
       id="clipPath4374">
      <path
         d="m 209.338,455.593 c 0,-33.845 27.438,-61.281 61.282,-61.281 l 0,0 c 33.845,0 61.282,27.436 61.282,61.281 l 0,0 c 0,33.845 -27.437,61.282 -61.282,61.282 l 0,0 c -33.844,0 -61.282,-27.437 -61.282,-61.282"
         id="path4376" />
    </clipPath>
    <clipPath
       clipPathUnits="userSpaceOnUse"
       id="clipPath4400">
      <path
         d="m 71.622,455.593 c 0,-33.845 27.437,-61.281 61.282,-61.281 l 0,0 c 33.844,0 61.281,27.436 61.281,61.281 l 0,0 c 0,33.845 -27.437,61.282 -61.281,61.282 l 0,0 c -33.845,0 -61.282,-27.437 -61.282,-61.282"
         id="path4402" />
    </clipPath>
    <clipPath
       clipPathUnits="userSpaceOnUse"
       id="clipPath4448">
      <path
         d="m 346.961,455.593 c 0,-33.845 27.436,-61.281 61.281,-61.281 l 0,0 c 33.845,0 61.282,27.436 61.282,61.281 l 0,0 c 0,33.845 -27.437,61.282 -61.282,61.282 l 0,0 c -33.845,0 -61.281,-27.437 -61.281,-61.282"
         id="path4450" />
    </clipPath>
    <clipPath
       clipPathUnits="userSpaceOnUse"
       id="clipPath4478">
      <path
         d="m 29.173,29.173 623.622,0 0,870.236 -623.622,0 0,-870.236 z"
         id="path4480" />
    </clipPath>
    <clipPath
       clipPathUnits="userSpaceOnUse"
       id="clipPath4542">
      <path
         d="m 0,0 681.969,0 0,928.583 L 0,928.583 0,0 Z"
         id="path4544" />
    </clipPath>
  </defs>
  <g
     transform="translate(-126.87031,-865.73619)"
     id="layer1">
    <g
       transform="matrix(4.0156772,0,0,-4.0156772,262.37532,901.8813)"
       id="g4534">
      <path
         id="path4536"
         style="fill:#3060b6;fill-opacity:1;fill-rule:nonzero;stroke:none"
         d="m 0,0 c 0,-1.34 0,-2.726 -0.777,-3.722 -0.771,-0.999 -2.277,-1.454 -3.349,-1.454 -1.073,0 -2.577,0.455 -3.35,1.455 C -8.252,-2.726 -8.252,-1.34 -8.252,0 l 0,8.539 -0.599,0 0,-8.808 c 0,-1.433 0,-2.67 0.938,-3.827 0.89,-1.013 2.307,-1.62 3.787,-1.62 1.479,0 2.895,0.608 3.791,1.624 0.933,1.153 0.933,2.39 0.933,3.823 l 0,8.808 L 0,8.539 0,0 Z m -25.465,1.282 5.674,0 -0.011,-0.168 c -0.107,-1.788 -0.954,-3.489 -2.323,-4.668 -1.297,-1.047 -2.836,-1.622 -4.337,-1.622 -3.685,0 -6.683,2.998 -6.683,6.683 0,3.559 3.122,6.682 6.683,6.682 2.227,0 4.193,-1.057 5.556,-2.98 l 0.441,0.442 c -1.557,2.015 -3.608,3.079 -5.942,3.079 -4.045,0 -7.337,-3.266 -7.337,-7.28 0,-3.884 3.308,-7.166 7.223,-7.166 2.029,0 4.025,0.851 5.339,2.276 1.291,1.354 2,3.09 2,4.89 l 0,0.374 -6.283,0 0,-0.542 z m 10.806,10e-4 c 2.379,0 3.858,1.379 3.858,3.6 0,0.906 -0.24,2.155 -1.382,2.96 -0.959,0.696 -2.146,0.696 -3.19,0.696 l -1.634,0 0,-14.064 0.598,0 0,6.809 0.7,0 4.692,-6.809 0.663,0 -4.714,6.814 0.409,-0.006 z m -1.75,0.541 0,6.174 1.202,10e-4 c 0.746,0 1.53,-0.026 2.192,-0.34 0.995,-0.443 1.616,-1.494 1.616,-2.739 0,-0.972 -0.39,-1.844 -1.071,-2.393 -0.748,-0.649 -1.664,-0.703 -2.617,-0.703 l -1.322,0 z M 35.392,6.961 C 34.624,7.647 33.708,8.176 32.714,8.525 L 30.035,5.846 c 1.171,-0.017 2.237,-0.489 3.023,-1.218 l 2.334,2.333 z M 18.21,8.189 c 3.325,0 6.17,-2.566 6.63,-5.778 l 0.519,0.52 c -0.69,3.261 -3.684,5.799 -7.149,5.799 -3.957,0 -7.301,-3.308 -7.301,-7.223 0,-3.456 2.606,-6.435 5.94,-7.087 l 0.472,0.473 c -3.23,0.45 -5.812,3.291 -5.812,6.614 0,3.622 3.068,6.682 6.701,6.682 m 53.524,-6.217 0,0.038 c 1.137,0.577 1.547,1.604 1.547,2.871 0,2.684 -1.678,3.653 -4.176,3.653 l -5.22,0 0,-14.056 5.631,0 c 2.573,0 5.089,0.969 5.089,3.915 0,1.957 -0.858,3.318 -2.871,3.579 m -4.195,3.766 0.262,0 c 0.986,0 2.124,-0.075 2.124,-1.36 0,-1.195 -1.007,-1.362 -1.976,-1.362 l -0.41,0 0,2.722 z m 0.466,-8.464 -0.466,0 0,3.02 0.373,0 c 1.193,0 3.002,0.169 3.002,-1.529 0,-1.546 -1.828,-1.491 -2.909,-1.491 M 82.992,9.001 c -4.045,0 -7.773,-2.983 -7.773,-7.235 0,-4.547 3.262,-7.754 7.773,-7.754 4.513,0 7.776,3.207 7.776,7.754 0,4.252 -3.728,7.235 -7.776,7.235 m 0,-11.448 c -2.18,0 -3.97,1.772 -3.97,4.195 0,1.939 1.79,3.71 3.97,3.71 2.182,0 3.972,-1.771 3.972,-3.71 0,-2.423 -1.79,-4.195 -3.972,-4.195 M 54.812,9.001 c -4.046,0 -7.775,-2.983 -7.775,-7.235 0,-4.547 3.263,-7.754 7.775,-7.754 4.512,0 7.775,3.207 7.775,7.754 0,4.252 -3.729,7.235 -7.775,7.235 m 0,-11.448 c -2.181,0 -3.971,1.772 -3.971,4.195 0,1.939 1.79,3.71 3.971,3.71 2.18,0 3.971,-1.771 3.971,-3.71 0,-2.423 -1.791,-4.195 -3.971,-4.195 M 42.74,8.534 l -3.653,0 0,-14.056 8.034,0 0,3.095 -4.381,0 0,10.961 z m -11.984,-6.208 0,-2.871 3.131,0 c -0.748,-1.486 -2.227,-2.439 -3.916,-2.439 -2.332,0 -4.26,1.816 -4.422,4.345 l -2.757,-2.758 c 1.137,-2.8 3.808,-4.591 7.179,-4.591 4.512,0 7.775,3.207 7.775,7.754 0,0.19 -0.017,0.375 -0.031,0.56 l -6.959,0 z M 8.593,7.738 C 7.724,8.477 6.63,8.539 5.586,8.539 l -2.378,0 0,-14.064 0.598,0 0,6.829 1.78,0 c 0.975,0 2.208,0.099 3.101,0.876 0.708,0.59 1.146,1.633 1.146,2.722 0,1.151 -0.44,2.158 -1.24,2.836 M 8.249,2.667 C 7.441,1.943 6.511,1.843 5.625,1.843 l -1.819,0 0,6.155 1.666,0 c 0.812,0 1.822,0 2.615,-0.606 C 8.806,6.863 9.237,5.946 9.237,4.94 9.237,4.038 8.895,3.252 8.249,2.667" />
    </g>
  </g>
</svg>
